<svg width="500" height="200" viewBox="0 0 500 200" fill="none" xmlns="http://www.w3.org/2000/svg">
<path d="M191.048 107.776C191.048 111.712 190.16 115.192 188.384 118.216C186.656 121.192 184.304 123.52 181.328 125.2C178.4 126.88 175.112 127.72 171.464 127.72C167.816 127.72 164.504 126.88 161.528 125.2C158.6 123.52 156.248 121.192 154.472 118.216C152.744 115.192 151.88 111.712 151.88 107.776C151.88 103.84 152.744 100.384 154.472 97.408C156.248 94.384 158.6 92.032 161.528 90.352C164.504 88.624 167.816 87.76 171.464 87.76C175.112 87.76 178.4 88.624 181.328 90.352C184.304 92.032 186.656 94.384 188.384 97.408C190.16 100.384 191.048 103.84 191.048 107.776ZM182.408 107.776C182.408 105.328 181.904 103.216 180.896 101.44C179.936 99.616 178.616 98.2 176.936 97.192C175.304 96.184 173.48 95.68 171.464 95.68C169.448 95.68 167.6 96.184 165.92 97.192C164.288 98.2 162.968 99.616 161.96 101.44C161 103.216 160.52 105.328 160.52 107.776C160.52 110.176 161 112.288 161.96 114.112C162.968 115.888 164.288 117.28 165.92 118.288C167.6 119.296 169.448 119.8 171.464 119.8C173.48 119.8 175.304 119.296 176.936 118.288C178.616 117.28 179.936 115.888 180.896 114.112C181.904 112.288 182.408 110.176 182.408 107.776ZM218.554 87.76C221.914 87.76 224.914 88.624 227.554 90.352C230.242 92.032 232.354 94.36 233.89 97.336C235.474 100.312 236.266 103.768 236.266 107.704C236.266 111.64 235.474 115.12 233.89 118.144C232.354 121.12 230.266 123.472 227.626 125.2C225.034 126.88 222.106 127.72 218.842 127.72C216.922 127.72 215.122 127.408 213.442 126.784C211.762 126.16 210.274 125.368 208.978 124.408C207.73 123.448 206.746 122.488 206.026 121.528C205.354 120.52 205.018 119.68 205.018 119.008L207.25 118.072V137.008C207.25 138.256 206.842 139.288 206.026 140.104C205.21 140.968 204.178 141.4 202.93 141.4C201.682 141.4 200.65 140.992 199.834 140.176C199.018 139.36 198.61 138.304 198.61 137.008V92.872C198.61 91.624 199.018 90.592 199.834 89.776C200.65 88.912 201.682 88.48 202.93 88.48C204.178 88.48 205.21 88.912 206.026 89.776C206.842 90.592 207.25 91.624 207.25 92.872V96.4L206.026 95.752C206.026 95.128 206.362 94.384 207.034 93.52C207.706 92.608 208.618 91.72 209.77 90.856C210.922 89.944 212.242 89.2 213.73 88.624C215.266 88.048 216.874 87.76 218.554 87.76ZM217.474 95.68C215.362 95.68 213.514 96.208 211.93 97.264C210.346 98.32 209.098 99.76 208.186 101.584C207.322 103.36 206.89 105.4 206.89 107.704C206.89 109.96 207.322 112.024 208.186 113.896C209.098 115.72 210.346 117.16 211.93 118.216C213.514 119.272 215.362 119.8 217.474 119.8C219.586 119.8 221.41 119.272 222.946 118.216C224.53 117.16 225.754 115.72 226.618 113.896C227.53 112.024 227.986 109.96 227.986 107.704C227.986 105.4 227.53 103.36 226.618 101.584C225.754 99.76 224.53 98.32 222.946 97.264C221.41 96.208 219.586 95.68 217.474 95.68ZM261.965 127.72C257.885 127.72 254.333 126.88 251.309 125.2C248.333 123.472 246.029 121.144 244.397 118.216C242.813 115.288 242.021 111.976 242.021 108.28C242.021 103.96 242.885 100.288 244.613 97.264C246.389 94.192 248.693 91.84 251.525 90.208C254.357 88.576 257.357 87.76 260.525 87.76C262.973 87.76 265.277 88.264 267.437 89.272C269.645 90.28 271.589 91.672 273.269 93.448C274.949 95.176 276.269 97.192 277.229 99.496C278.237 101.8 278.741 104.248 278.741 106.84C278.693 107.992 278.237 108.928 277.373 109.648C276.509 110.368 275.501 110.728 274.349 110.728H246.845L244.685 103.528H271.109L269.525 104.968V103.024C269.429 101.632 268.925 100.384 268.013 99.28C267.149 98.176 266.045 97.312 264.701 96.688C263.405 96.016 262.013 95.68 260.525 95.68C259.085 95.68 257.741 95.872 256.493 96.256C255.245 96.64 254.165 97.288 253.253 98.2C252.341 99.112 251.621 100.336 251.093 101.872C250.565 103.408 250.301 105.352 250.301 107.704C250.301 110.296 250.829 112.504 251.885 114.328C252.989 116.104 254.381 117.472 256.061 118.432C257.789 119.344 259.613 119.8 261.533 119.8C263.309 119.8 264.725 119.656 265.781 119.368C266.837 119.08 267.677 118.744 268.301 118.36C268.973 117.928 269.573 117.568 270.101 117.28C270.965 116.848 271.781 116.632 272.549 116.632C273.605 116.632 274.469 116.992 275.141 117.712C275.861 118.432 276.221 119.272 276.221 120.232C276.221 121.528 275.549 122.704 274.205 123.76C272.957 124.816 271.205 125.752 268.949 126.568C266.693 127.336 264.365 127.72 261.965 127.72ZM306.881 87.76C310.433 87.76 313.121 88.504 314.945 89.992C316.817 91.48 318.089 93.472 318.761 95.968C319.481 98.416 319.841 101.152 319.841 104.176V122.608C319.841 123.856 319.433 124.912 318.617 125.776C317.801 126.592 316.769 127 315.521 127C314.273 127 313.241 126.592 312.425 125.776C311.609 124.912 311.201 123.856 311.201 122.608V104.176C311.201 102.592 310.985 101.176 310.553 99.928C310.169 98.632 309.449 97.6 308.393 96.832C307.337 96.064 305.825 95.68 303.857 95.68C301.937 95.68 300.305 96.064 298.961 96.832C297.665 97.6 296.657 98.632 295.937 99.928C295.265 101.176 294.929 102.592 294.929 104.176V122.608C294.929 123.856 294.521 124.912 293.705 125.776C292.889 126.592 291.857 127 290.609 127C289.361 127 288.329 126.592 287.513 125.776C286.697 124.912 286.289 123.856 286.289 122.608V92.872C286.289 91.624 286.697 90.592 287.513 89.776C288.329 88.912 289.361 88.48 290.609 88.48C291.857 88.48 292.889 88.912 293.705 89.776C294.521 90.592 294.929 91.624 294.929 92.872V95.968L293.849 95.752C294.281 94.936 294.905 94.072 295.721 93.16C296.537 92.2 297.497 91.312 298.601 90.496C299.705 89.68 300.953 89.032 302.345 88.552C303.737 88.024 305.249 87.76 306.881 87.76ZM365.18 79.048C366.428 79.672 367.148 80.656 367.34 82C367.58 83.344 367.244 84.568 366.332 85.672C365.708 86.536 364.892 87.016 363.884 87.112C362.924 87.208 361.94 87.016 360.932 86.536C359.78 86.008 358.556 85.6 357.26 85.312C356.012 85.024 354.692 84.88 353.3 84.88C350.708 84.88 348.38 85.288 346.316 86.104C344.3 86.92 342.572 88.096 341.132 89.632C339.692 91.12 338.588 92.896 337.82 94.96C337.1 97.024 336.74 99.304 336.74 101.8C336.74 104.728 337.148 107.272 337.964 109.432C338.828 111.592 340.004 113.392 341.492 114.832C342.98 116.272 344.732 117.352 346.748 118.072C348.764 118.744 350.948 119.08 353.3 119.08C354.596 119.08 355.892 118.96 357.188 118.72C358.484 118.48 359.732 118.048 360.932 117.424C361.94 116.944 362.924 116.776 363.884 116.92C364.892 117.064 365.732 117.568 366.404 118.432C367.364 119.632 367.7 120.88 367.412 122.176C367.172 123.424 366.452 124.336 365.252 124.912C364.004 125.536 362.708 126.064 361.364 126.496C360.068 126.88 358.748 127.168 357.404 127.36C356.06 127.6 354.692 127.72 353.3 127.72C349.844 127.72 346.556 127.168 343.436 126.064C340.364 124.96 337.604 123.328 335.156 121.168C332.756 119.008 330.86 116.32 329.468 113.104C328.076 109.84 327.38 106.072 327.38 101.8C327.38 98.104 328.004 94.696 329.252 91.576C330.548 88.456 332.348 85.768 334.652 83.512C337.004 81.208 339.764 79.432 342.932 78.184C346.1 76.888 349.556 76.24 353.3 76.24C355.412 76.24 357.476 76.48 359.492 76.96C361.508 77.44 363.404 78.136 365.18 79.048ZM396.641 76.6C400.097 76.6 403.169 77.248 405.857 78.544C408.545 79.84 410.801 81.664 412.625 84.016C414.497 86.32 415.889 89.008 416.801 92.08C417.761 95.104 418.241 98.344 418.241 101.8C418.241 106.456 417.401 110.704 415.721 114.544C414.041 118.336 411.593 121.36 408.377 123.616C405.209 125.872 401.297 127 396.641 127H379.433C378.185 127 377.129 126.592 376.265 125.776C375.449 124.912 375.041 123.856 375.041 122.608V80.992C375.041 79.744 375.449 78.712 376.265 77.896C377.129 77.032 378.185 76.6 379.433 76.6H396.641ZM395.921 118.72C398.945 118.72 401.417 117.952 403.337 116.416C405.257 114.832 406.649 112.768 407.513 110.224C408.425 107.632 408.881 104.824 408.881 101.8C408.881 99.544 408.617 97.408 408.089 95.392C407.609 93.328 406.841 91.528 405.785 89.992C404.729 88.408 403.385 87.16 401.753 86.248C400.121 85.336 398.177 84.88 395.921 84.88H383.321L384.041 84.232V119.512L383.609 118.72H395.921ZM464.741 76.6C465.893 76.6 466.829 76.984 467.549 77.752C468.269 78.52 468.629 79.48 468.629 80.632V122.608C468.629 123.856 468.197 124.912 467.333 125.776C466.517 126.592 465.485 127 464.237 127C463.613 127 462.965 126.904 462.293 126.712C461.669 126.472 461.189 126.16 460.853 125.776L432.557 89.848L434.429 88.696V122.968C434.429 124.12 434.045 125.08 433.277 125.848C432.557 126.616 431.597 127 430.397 127C429.245 127 428.309 126.616 427.589 125.848C426.869 125.08 426.509 124.12 426.509 122.968V80.992C426.509 79.744 426.917 78.712 427.733 77.896C428.597 77.032 429.653 76.6 430.901 76.6C431.573 76.6 432.269 76.744 432.989 77.032C433.709 77.272 434.237 77.656 434.573 78.184L462.005 113.176L460.781 114.04V80.632C460.781 79.48 461.141 78.52 461.861 77.752C462.581 76.984 463.541 76.6 464.741 76.6Z" fill="white"/>
<g clip-path="url(#clip0_1_3)">
<path d="M78.2461 126.399V146.382C74.1167 144.913 69.6523 140.337 66.0601 133.718C65.16 132.058 64.3288 130.301 63.5694 128.465C68.2854 127.296 73.2417 126.59 78.2461 126.399ZM58.243 130.019C59.1366 132.22 60.1291 134.336 61.2199 136.346C62.9963 139.618 64.9449 142.44 67.0038 144.768C60.1277 142.622 53.9249 138.938 48.7972 134.122C51.7175 132.523 54.8931 131.148 58.243 130.019ZM52.6491 102.562C52.8951 110.325 54.1745 117.912 56.3762 124.844C52.2755 126.233 48.4078 127.961 44.8994 129.997C38.6784 122.57 34.7022 113.203 34.0239 102.947L34 102.562H52.6491ZM78.2461 102.562V120.888C72.6013 121.089 66.9988 121.904 61.6782 123.269C59.6343 116.829 58.4137 109.717 58.1627 102.562H78.2461ZM83.7539 126.399C88.7583 126.59 93.7146 127.296 98.4307 128.465C97.6712 130.301 96.84 132.059 95.9399 133.718C92.4005 140.24 88.0144 144.778 83.9363 146.315L83.7539 146.382V126.399ZM103.757 130.019C107.107 131.148 110.282 132.523 113.203 134.122C108.075 138.937 101.872 142.622 94.9962 144.767C97.0559 142.44 99.0044 139.618 100.78 136.346C101.87 134.336 102.863 132.22 103.757 130.019ZM128 102.562C127.397 112.968 123.399 122.476 117.101 129.997C113.592 127.961 109.725 126.233 105.624 124.844C107.768 118.094 109.037 110.724 109.329 103.175L109.351 102.562H128ZM103.838 102.562C103.586 109.717 102.366 116.829 100.322 123.269C95.0012 121.904 89.3994 121.089 83.7539 120.888V102.562H103.838ZM61.6782 76.3492C66.9988 77.7132 72.6013 78.5286 78.2461 78.7294V97.0551H58.1627C58.4137 89.9007 59.6343 82.7886 61.6782 76.3492ZM44.8994 69.6207C48.4078 71.6568 52.2755 73.3844 56.3762 74.7736C54.2325 81.5232 52.9631 88.8937 52.6707 96.4426L52.6491 97.0551H34C34.6031 86.6498 38.5999 77.1409 44.8994 69.6207ZM78.2461 53.235V73.218C73.2417 73.0273 68.2854 72.3216 63.5694 71.1519C64.3288 69.3167 65.16 67.5589 66.0601 65.8994C69.6523 59.28 74.1167 54.7045 78.2461 53.235ZM67.0038 54.8501C64.9442 57.1772 62.9956 59.9993 61.2199 63.2724C60.1298 65.2812 59.1373 67.3968 58.243 69.5985C54.8931 68.469 51.7175 67.0942 48.7965 65.4956C53.9249 60.6799 60.1277 56.9951 67.0038 54.8501ZM117.101 69.6207C123.322 77.0481 127.298 86.4146 127.976 96.6701L128 97.0551H109.351C109.105 89.2925 107.825 81.7057 105.624 74.7736C109.725 73.3844 113.592 71.6568 117.101 69.6207ZM100.322 76.3492C102.366 82.7886 103.586 89.9007 103.837 97.0551H83.7539V78.7294C89.3994 78.5286 95.0012 77.7132 100.322 76.3492ZM83.7539 53.235C87.8833 54.7045 92.3477 59.28 95.9399 65.8994C96.8407 67.5589 97.6712 69.3167 98.4307 71.1526C93.9111 72.2729 89.1709 72.9677 84.3792 73.1915L83.7539 73.218V53.235ZM94.9962 54.8501C101.872 56.9951 108.075 60.6799 113.203 65.4956C110.282 67.0942 107.107 68.469 103.757 69.5985C102.863 67.3968 101.871 65.2812 100.78 63.2724C99.0044 60 97.0559 57.1772 94.9962 54.8501Z" fill="white"/>
</g>
<defs>
<clipPath id="clip0_1_3">
<rect width="94" height="94" fill="white" transform="translate(34 53)"/>
</clipPath>
</defs>
</svg>
