<?xml version="1.0" encoding="iso-8859-1"?>
<!-- Generator: Adobe Illustrator 19.0.0, SVG Export Plug-In . SVG Version: 6.00 Build 0)  -->
<svg version="1.1" id="Layer_1" xmlns="http://www.w3.org/2000/svg" xmlns:xlink="http://www.w3.org/1999/xlink" x="0px" y="0px"
	 viewBox="0 0 297.001 297.001" style="enable-background:new 0 0 297.001 297.001;" xml:space="preserve">
<g>
	<g>
		<path style="fill:#404066;" d="M293.072,143.554c-2.356-0.793-4.951,0.014-6.446,1.999
			c-11.571,15.381-44.898,29.739-45.233,29.882c-1.761,0.753-3.035,2.33-3.398,4.21c-0.363,1.88,0.23,3.818,1.584,5.172
			l11.921,11.921c-16.652,12.817-36.259,41.735-69.662,15.34c-17.913-14.155-20.456-56.95-19.449-90.283h29.046
			c4.742,0,8.587-3.844,8.587-8.587c0-4.742-3.844-8.587-8.587-8.587H163.23c0.462-6.908,1.006-12.857,1.462-17.301
			c16.808-6.514,28.763-22.845,28.763-41.925c0-24.787-20.167-44.954-44.954-44.954s-44.954,20.167-44.954,44.954
			c0,19.08,11.955,35.412,28.763,41.925c0.457,4.445,1,10.393,1.462,17.301h-28.205c-4.742,0-8.587,3.844-8.587,8.587
			c0,4.742,3.844,8.587,8.587,8.587h29.046c1.007,33.333-1.536,76.128-19.449,90.283c-33.403,26.396-53.011-2.523-69.662-15.34
			l11.921-11.921c1.355-1.354,1.949-3.293,1.584-5.173c-0.363-1.88-1.637-3.458-3.399-4.209
			c-0.335-0.144-33.639-14.472-45.232-29.882c-1.493-1.985-4.091-2.789-6.446-1.999c-2.355,0.791-3.938,3.002-3.93,5.486
			c0.007,2.01,0.364,49.437,17.448,67.392c1.071,1.127,2.552,1.772,4.107,1.792c0.023,0,0.048,0,0.071,0
			c1.528,0,2.996-0.607,4.078-1.69l7.236-7.236c3.873,5.549,8.509,11.677,13.981,18.107c18.84,22.142,51.483,52.066,100.005,68.889
			c0.51,0.176,1.042,0.265,1.574,0.265s1.064-0.088,1.574-0.265c48.522-16.822,81.165-46.747,100.005-68.889
			c5.472-6.431,10.107-12.558,13.981-18.107l7.236,7.236c1.081,1.082,2.549,1.69,4.078,1.69c0.023,0,0.048,0,0.071,0
			c1.554-0.02,3.036-0.665,4.107-1.792c17.084-17.955,17.442-65.383,17.448-67.392C297.01,146.556,295.427,144.346,293.072,143.554z
			 M126.783,45.394c0-11.976,9.743-21.719,21.719-21.719s21.719,9.743,21.719,21.719s-9.743,21.719-21.719,21.719
			S126.783,57.371,126.783,45.394z"/>
	</g>
	<g>
		<path style="fill:#313052;" d="M293.072,143.554c-2.356-0.793-4.951,0.014-6.446,1.999
			c-11.571,15.381-44.898,29.739-45.233,29.882c-1.761,0.753-3.035,2.33-3.398,4.21c-0.363,1.88,0.23,3.818,1.584,5.172
			l11.921,11.921c-16.652,12.817-36.259,41.735-69.662,15.34c-17.913-14.155-20.456-56.95-19.449-90.283h29.046
			c4.742,0,8.587-3.844,8.587-8.587c0-4.742-3.844-8.587-8.587-8.587H163.23c0.462-6.908,1.006-12.857,1.462-17.301
			c16.808-6.514,28.763-22.845,28.763-41.925c0-24.787-20.167-44.954-44.954-44.954c-0.113,0-0.224,0.008-0.336,0.009v23.243
			c0.113-0.002,0.223-0.017,0.336-0.017c11.976,0,21.719,9.743,21.719,21.719s-9.743,21.719-21.719,21.719
			c-0.114,0-0.223-0.015-0.336-0.017v229.435c0.112,0.008,0.224,0.028,0.336,0.028c0.532,0,1.064-0.088,1.574-0.265
			c48.522-16.822,81.165-46.747,100.005-68.889c5.472-6.431,10.107-12.558,13.981-18.107l7.236,7.236
			c1.081,1.082,2.549,1.69,4.078,1.69c0.023,0,0.048,0,0.071,0c1.554-0.02,3.036-0.665,4.107-1.792
			c17.084-17.955,17.442-65.383,17.448-67.392C297.01,146.556,295.427,144.346,293.072,143.554z"/>
	</g>
</g>
<g>
</g>
<g>
</g>
<g>
</g>
<g>
</g>
<g>
</g>
<g>
</g>
<g>
</g>
<g>
</g>
<g>
</g>
<g>
</g>
<g>
</g>
<g>
</g>
<g>
</g>
<g>
</g>
<g>
</g>
</svg>
