<svg xmlns="http://www.w3.org/2000/svg" version="1.1" xmlns:xlink="http://www.w3.org/1999/xlink" xmlns:svgjs="http://svgjs.com/svgjs" width="1440" height="560" preserveAspectRatio="none" viewBox="0 0 1440 560"><g mask="url(&quot;#SvgjsMask1090&quot;)" fill="none"><rect width="1440" height="560" x="0" y="0" fill="#0e2a47"></rect><path d="M1139.18 457.68a5.6 5.6 0 1 0 3.7-10.57 5.6 5.6 0 1 0-3.7 10.57zM1144.47 442.58a5.6 5.6 0 1 0 3.71-10.57 5.6 5.6 0 1 0-3.71 10.57zM1149.77 427.48a5.6 5.6 0 1 0 3.71-10.57 5.6 5.6 0 1 0-3.71 10.57zM1155.07 412.38a5.6 5.6 0 1 0 3.7-10.57 5.6 5.6 0 1 0-3.7 10.57zM1143.68 493.17a5.6 5.6 0 1 0 3.71-10.57 5.6 5.6 0 1 0-3.71 10.57zM1148.98 478.07a5.6 5.6 0 1 0 3.71-10.57 5.6 5.6 0 1 0-3.71 10.57zM1154.27 462.97a5.6 5.6 0 1 0 3.71-10.57 5.6 5.6 0 1 0-3.71 10.57zM1159.57 447.87a5.6 5.6 0 1 0 3.71-10.56 5.6 5.6 0 1 0-3.71 10.56zM1148.19 528.66a5.6 5.6 0 1 0 3.71-10.57 5.6 5.6 0 1 0-3.71 10.57zM1153.48 513.56a5.6 5.6 0 1 0 3.71-10.57 5.6 5.6 0 1 0-3.71 10.57zM1158.78 498.46a5.6 5.6 0 1 0 3.71-10.56 5.6 5.6 0 1 0-3.71 10.56zM1164.08 483.37a5.6 5.6 0 1 0 3.7-10.57 5.6 5.6 0 1 0-3.7 10.57z" stroke="#e73635" stroke-width="1"></path><path d="M139.65 255.24a5.6 5.6 0 1 0 10.4 4.16 5.6 5.6 0 1 0-10.4-4.16zM154.51 261.19a5.6 5.6 0 1 0 10.39 4.16 5.6 5.6 0 1 0-10.39-4.16zM169.36 267.14a5.6 5.6 0 1 0 10.39 4.16 5.6 5.6 0 1 0-10.39-4.16zM184.21 273.09a5.6 5.6 0 1 0 10.4 4.16 5.6 5.6 0 1 0-10.4-4.16z" stroke="#e73635" stroke-width="2.82" stroke-dasharray="3, 3"></path><rect width="241.12" height="241.12" clip-path="url(&quot;#SvgjsClipPath1091&quot;)" x="48.34" y="-84.03" fill="url(#SvgjsPattern1092)" transform="rotate(261.96, 168.9, 36.53)"></rect><rect width="372" height="372" clip-path="url(&quot;#SvgjsClipPath1093&quot;)" x="600.28" y="-179.2" fill="url(#SvgjsPattern1094)" transform="rotate(236.95, 786.28, 6.8)"></rect><path d="M593.39 207.12L591.17 194.5 602.99 189.57 600.77 176.96 612.59 172.03 610.38 159.41 622.19 154.48M600.41 210.96L598.19 198.34 610.01 193.41 607.79 180.8 619.61 175.87 617.39 163.25 629.21 158.32M607.43 214.8L605.21 202.18 617.03 197.25 614.81 184.64 626.63 179.71 624.41 167.1 636.23 162.16" stroke="#e73635" stroke-width="1.93" stroke-dasharray="4, 4"></path><rect width="191.36" height="191.36" clip-path="url(&quot;#SvgjsClipPath1095&quot;)" x="135.92" y="101.68" fill="url(#SvgjsPattern1096)" transform="rotate(177.62, 231.6, 197.36)"></rect><rect width="174.4" height="174.4" clip-path="url(&quot;#SvgjsClipPath1097&quot;)" x="790.52" y="67.64" fill="url(#SvgjsPattern1098)" transform="rotate(354.17, 877.72, 154.84)"></rect><rect width="308.36" height="308.36" clip-path="url(&quot;#SvgjsClipPath1099&quot;)" x="266.45" y="89.74" fill="url(#SvgjsPattern1100)" transform="rotate(122.52, 420.63, 243.92)"></rect><rect width="165.24" height="165.24" clip-path="url(&quot;#SvgjsClipPath1101&quot;)" x="242.32" y="436.7" fill="url(#SvgjsPattern1102)" transform="rotate(128.7, 324.94, 519.32)"></rect><rect width="96" height="96" clip-path="url(&quot;#SvgjsClipPath1103&quot;)" x="1108.43" y="72.16" fill="url(#SvgjsPattern1104)" transform="rotate(107.66, 1156.43, 120.16)"></rect><rect width="204" height="204" clip-path="url(&quot;#SvgjsClipPath1105&quot;)" x="970.29" y="28.41" fill="url(#SvgjsPattern1106)" transform="rotate(180.34, 1072.29, 130.41)"></rect><circle r="46.666666666666664" cx="764.56" cy="477.22" fill="#037b0b"></circle></g><defs><mask id="SvgjsMask1090"><rect width="1440" height="560" fill="#ffffff"></rect></mask><pattern x="0" y="0" width="241.12" height="10.96" patternUnits="userSpaceOnUse" id="SvgjsPattern1092"><rect width="241.12" height="5.48" x="0" y="0" fill="#e73635"></rect><rect width="241.12" height="5.48" x="0" y="5.48" fill="rgba(0, 0, 0, 0)"></rect></pattern><clipPath id="SvgjsClipPath1091"><circle r="60.28" cx="168.9" cy="36.53"></circle></clipPath><pattern x="0" y="0" width="6" height="6" patternUnits="userSpaceOnUse" id="SvgjsPattern1094"><path d="M0 6L3 0L6 6" stroke="#037b0b" fill="none"></path></pattern><clipPath id="SvgjsClipPath1093"><circle r="93" cx="786.28" cy="6.8"></circle></clipPath><pattern x="0" y="0" width="191.36" height="7.36" patternUnits="userSpaceOnUse" id="SvgjsPattern1096"><rect width="191.36" height="3.68" x="0" y="0" fill="#037b0b"></rect><rect width="191.36" height="3.68" x="0" y="3.68" fill="rgba(0, 0, 0, 0)"></rect></pattern><clipPath id="SvgjsClipPath1095"><circle r="47.84" cx="231.6" cy="197.36"></circle></clipPath><pattern x="0" y="0" width="174.4" height="10.9" patternUnits="userSpaceOnUse" id="SvgjsPattern1098"><rect width="174.4" height="5.45" x="0" y="0" fill="#037b0b"></rect><rect width="174.4" height="5.45" x="0" y="5.45" fill="rgba(0, 0, 0, 0)"></rect></pattern><clipPath id="SvgjsClipPath1097"><circle r="43.6" cx="877.72" cy="154.84"></circle></clipPath><pattern x="0" y="0" width="11.86" height="11.86" patternUnits="userSpaceOnUse" id="SvgjsPattern1100"><path d="M0 11.86L5.93 0L11.86 11.86" stroke="#d3b714" fill="none"></path></pattern><clipPath id="SvgjsClipPath1099"><circle r="77.09" cx="420.63" cy="243.92"></circle></clipPath><pattern x="0" y="0" width="165.24" height="9.18" patternUnits="userSpaceOnUse" id="SvgjsPattern1102"><rect width="165.24" height="4.59" x="0" y="0" fill="#d3b714"></rect><rect width="165.24" height="4.59" x="0" y="4.59" fill="rgba(0, 0, 0, 0)"></rect></pattern><clipPath id="SvgjsClipPath1101"><circle r="41.31" cx="324.94" cy="519.32"></circle></clipPath><pattern x="0" y="0" width="6" height="6" patternUnits="userSpaceOnUse" id="SvgjsPattern1104"><path d="M3 1L3 5M1 3L5 3" stroke="#037b0b" fill="none" stroke-width="1"></path></pattern><clipPath id="SvgjsClipPath1103"><circle r="24" cx="1156.43" cy="120.16"></circle></clipPath><pattern x="0" y="0" width="204" height="6" patternUnits="userSpaceOnUse" id="SvgjsPattern1106"><rect width="204" height="3" x="0" y="0" fill="#e73635"></rect><rect width="204" height="3" x="0" y="3" fill="rgba(0, 0, 0, 0)"></rect></pattern><clipPath id="SvgjsClipPath1105"><circle r="51" cx="1072.29" cy="130.41"></circle></clipPath></defs></svg>