<?xml version="1.0" encoding="iso-8859-1"?>
<!-- Generator: Adobe Illustrator 19.0.0, SVG Export Plug-In . SVG Version: 6.00 Build 0)  -->
<svg version="1.1" id="Layer_1" xmlns="http://www.w3.org/2000/svg" xmlns:xlink="http://www.w3.org/1999/xlink" x="0px" y="0px"
	 viewBox="0 0 297.001 297.001" style="enable-background:new 0 0 297.001 297.001;" xml:space="preserve">
<g>
	<path style="fill:#fff;" d="M291.641,148.041c-4.521-1.968-9.773,0.083-11.74,4.604c-0.337,0.753-6.237,13.531-20.072,20.777
		c4.129-5.834,7.395-11.523,9.955-16.794c12.172-25.057,11.727-46.259,11.702-47.15c-0.138-4.929-4.239-8.84-9.175-8.675
		c-4.929,0.138-8.813,4.245-8.675,9.175c0.015,0.52,0.516,38.164-32.664,69.396c-13.195-15.72-11.573-37.525-11.547-37.848
		c0.431-4.898-3.181-9.226-8.081-9.675c-4.919-0.452-9.256,3.167-9.705,8.079c-0.112,1.229-2.413,29.147,15.431,50.646
		c-8.539,5.888-18.653,11.284-30.609,15.834c-1.215-16.721-5.344-35.084-14.398-54.012c-3.643-7.615-7.004-15.006-10.105-22.151
		c32.06-14.186,46.109-38.733,52.246-57.58c0.034-0.106,0.065-0.211,0.099-0.316c29.84-0.5,47.222-24.197,51.291-37.559
		c1.436-4.717-1.216-9.728-5.933-11.164c-4.722-1.442-9.7,1.201-11.136,5.917c-0.323,1.022-7.538,22.944-30.065,24.828
		c1.926-13.133,1.008-22.549,0.951-23.102c-0.507-4.896-4.87-8.439-9.776-7.952c-4.897,0.494-8.469,4.87-7.989,9.768
		c0.016,0.162,1.506,16.289-4.622,34.653c-1.813,5.435-4.103,10.468-6.816,15.135c-10.606-7.832-16.157-28.717-17.377-36.54
		c-0.754-4.869-5.3-8.211-10.177-7.462c-4.874,0.747-8.22,5.304-7.473,10.179c0.616,4.017,5.822,34.353,24.206,48.076
		c-6.685,6.83-14.802,12.382-24.317,16.63c-23.739-59.176-28.666-97.687-28.722-98.147c-0.593-4.892-5.033-8.374-9.929-7.792
		c-4.896,0.588-8.388,5.034-7.801,9.93c0.285,2.367,7.422,58.925,47.333,142.357c12.019,25.125,15.732,52.197,11.034,80.467
		c-0.085,0.511-0.172,1.017-0.261,1.519c-0.226-0.701-0.459-1.409-0.7-2.122c-7.101-20.94-23.11-51.051-59.05-75.584
		c-2.803-1.913-5.495-3.936-8.106-6.039c10.448-9.226,15.913-22.759,15.913-39.688c0-14.658-4.196-26.863-4.374-27.375
		c-1.623-4.656-6.717-7.113-11.37-5.492c-4.656,1.624-7.115,6.714-5.492,11.37c0.123,0.354,11.438,33.689-7.867,48.899
		c-13.792-14.897-23.95-33.247-30.312-54.838c-7.049-23.919-6.538-43.037-6.532-43.212c0.172-4.929-3.685-9.063-8.613-9.233
		c-4.935-0.191-9.063,3.685-9.233,8.613c-0.03,0.874-0.654,21.692,7.064,48.246c10.276,35.358,30.629,64.232,58.856,83.5
		c0.143,0.098,0.278,0.2,0.421,0.298c-6.99-0.179-15.362-0.968-24.096-3.076c-29.113-7.029-47.852-25.025-55.694-53.491
		c-1.31-4.753-6.227-7.544-10.98-6.237c-4.754,1.31-7.546,6.226-6.236,10.98c9.561,34.702,33.323,57.561,68.719,66.105
		c11.713,2.828,22.818,3.618,31.57,3.618c8.469,0,14.722-0.738,17.203-1.087c9.343,9.195,17.023,19.36,23,30.435
		c-13,3.176-50.148,9.248-79.657-15.266c-3.792-3.15-9.421-2.631-12.573,1.163c-3.151,3.792-2.63,9.421,1.163,12.573
		c21.566,17.917,45.798,22.588,65.207,22.588c15.325,0,27.638-2.912,33.261-4.517c0.208,0.573,0.434,1.136,0.634,1.713
		c6.864,19.807,6.214,34.756,6.207,34.875c-0.236,4.189,2.475,7.978,6.517,9.105c0.797,0.222,1.603,0.329,2.398,0.329
		c3.241,0,6.312-1.772,7.889-4.749c0.316-0.596,2.263-4.354,4.654-10.624c51.675-1.83,85.089-32.129,86.596-33.522
		c3.615-3.341,3.837-8.971,0.505-12.594c-3.331-3.622-8.975-3.859-12.608-0.535c-0.305,0.279-27.389,24.598-68.812,28.375
		c2.123-8.633,3.886-18.874,4.464-30.267c22.448-7.672,39.474-18.024,52.378-29.129c0.078,0,0.157,0.001,0.235,0.001
		c40.681,0,56.332-34.892,56.982-36.385C298.224,155.29,296.162,150.008,291.641,148.041z"/>
	<path style="fill:#ffe;" d="M291.641,148.041c-4.521-1.968-9.773,0.083-11.74,4.604c-0.337,0.753-6.237,13.531-20.072,20.777
		c4.129-5.834,7.395-11.523,9.955-16.794c12.172-25.057,11.727-46.259,11.702-47.15c-0.138-4.929-4.239-8.84-9.175-8.675
		c-4.929,0.138-8.813,4.245-8.675,9.175c0.015,0.52,0.516,38.164-32.664,69.396c-13.195-15.72-11.573-37.525-11.547-37.848
		c0.431-4.898-3.181-9.226-8.081-9.675c-4.919-0.452-9.256,3.167-9.705,8.079c-0.112,1.229-2.413,29.147,15.431,50.646
		c-8.539,5.888-18.653,11.284-30.609,15.834c-1.215-16.721-5.344-35.084-14.398-54.012c-3.643-7.615-7.004-15.006-10.105-22.151
		c32.06-14.186,46.109-38.733,52.246-57.58c0.034-0.106,0.065-0.211,0.099-0.316c29.84-0.5,47.222-24.197,51.291-37.559
		c1.436-4.717-1.216-9.728-5.933-11.164c-4.722-1.442-9.7,1.201-11.136,5.917c-0.323,1.022-7.538,22.944-30.065,24.828
		c1.926-13.133,1.008-22.549,0.951-23.102c-0.507-4.896-4.87-8.439-9.776-7.952c-4.897,0.494-8.469,4.87-7.989,9.768
		c0.016,0.162,1.506,16.289-4.622,34.653c-1.813,5.435-4.103,10.468-6.816,15.135c-10.606-7.832-16.157-28.717-17.377-36.54
		c-0.754-4.869-5.3-8.211-10.177-7.462c-4.874,0.747-8.22,5.304-7.473,10.179c0.616,4.017,5.822,34.353,24.206,48.076
		c-6.685,6.83-14.802,12.382-24.317,16.63c-2.877-7.171-5.475-14.035-7.824-20.568v48.003c2.713,6.134,5.61,12.442,8.706,18.913
		c12.019,25.125,15.732,52.197,11.034,80.467c-0.085,0.511-0.172,1.017-0.261,1.519c-0.226-0.701-0.459-1.409-0.7-2.122
		c-3.559-10.495-9.357-23.293-18.779-36.539v40.062c0.339-0.093,0.669-0.184,0.97-0.27c0.208,0.573,0.434,1.136,0.634,1.713
		c6.864,19.807,6.214,34.756,6.207,34.875c-0.236,4.189,2.475,7.978,6.517,9.105c0.797,0.222,1.603,0.329,2.398,0.329
		c3.241,0,6.312-1.772,7.889-4.749c0.316-0.596,2.263-4.354,4.654-10.624c51.675-1.83,85.089-32.129,86.596-33.522
		c3.615-3.341,3.837-8.971,0.505-12.594c-3.331-3.622-8.975-3.859-12.608-0.535c-0.305,0.279-27.389,24.598-68.812,28.375
		c2.123-8.633,3.886-18.874,4.464-30.267c22.448-7.672,39.474-18.024,52.378-29.129c0.078,0,0.157,0.001,0.235,0.001
		c40.681,0,56.332-34.892,56.982-36.385C298.224,155.29,296.162,150.008,291.641,148.041z"/>
</g>
<g>
</g>
<g>
</g>
<g>
</g>
<g>
</g>
<g>
</g>
<g>
</g>
<g>
</g>
<g>
</g>
<g>
</g>
<g>
</g>
<g>
</g>
<g>
</g>
<g>
</g>
<g>
</g>
<g>
</g>
</svg>
