<?xml version="1.0" encoding="iso-8859-1"?>
<!-- Generator: Adobe Illustrator 19.0.0, SVG Export Plug-In . SVG Version: 6.00 Build 0)  -->
<svg version="1.1" id="Layer_1" xmlns="http://www.w3.org/2000/svg" xmlns:xlink="http://www.w3.org/1999/xlink" x="0px" y="0px"
	 viewBox="0 0 297.001 297.001" style="enable-background:new 0 0 297.001 297.001;" xml:space="preserve">
<g>
	<g>
		<path style="fill:#8C9496;" d="M269.537,168.352c-4.043,0-7.81-2.557-9.163-6.6l-18.323-54.786
			c-5.82-17.399-22.056-29.089-40.403-29.089H95.352c-18.347,0-34.583,11.69-40.403,29.089l-18.323,54.786
			c-1.694,5.06-7.169,7.787-12.229,6.099c-5.061-1.693-7.791-7.168-6.099-12.229l18.323-54.786
			c8.46-25.291,32.062-42.284,58.731-42.284h106.295c26.669,0,50.271,16.993,58.731,42.284l18.323,54.786
			c1.693,5.062-1.038,10.537-6.099,12.229C271.586,168.19,270.553,168.352,269.537,168.352z"/>
	</g>
	<g>
		<path style="fill:#A1BEB9;" d="M170.306,165.245l19.292,45.998c8.105,19.324-3.682,42.061-21.806,42.061h-38.585
			c-18.123,0-29.91-22.737-21.806-42.061l19.292-45.998C135.679,143.824,161.321,143.824,170.306,165.245z"/>
	</g>
	<g>
		<path style="fill:#86A8A1;" d="M189.598,211.244l-19.292-45.998c-4.375-10.431-12.699-15.767-21.127-16.04v104.1h18.614
			C185.915,253.305,197.703,230.568,189.598,211.244z"/>
	</g>
	<g>
		<g>
			<path style="fill:#297CCE;" d="M202.847,240.211c-15.499,0-29.207-9.879-34.107-24.583l-12.267-36.801
				c-1.146-3.437-4.35-5.746-7.972-5.746c-3.623,0-6.826,2.309-7.972,5.746l-12.267,36.801
				c-4.901,14.704-18.608,24.583-34.107,24.583H43.072c-19.824,0-35.952-16.128-35.952-35.952v-35.077
				c0-24.21,19.696-43.906,43.905-43.906h194.949c24.21,0,43.906,19.696,43.906,43.906v35.077c0,19.824-16.128,35.952-35.952,35.952
				H202.847z"/>
		</g>
		<g>
			<path style="fill:#559DD8;" d="M85.511,125.277L19.61,231.466c6.302,5.442,14.501,8.745,23.462,8.745h32.355l62.001-114.935
				L85.511,125.277L85.511,125.277z"/>
		</g>
		<g>
			<path style="fill:#0F68B2;" d="M245.974,125.277h-97.813v47.832c0.114-0.005,0.224-0.027,0.339-0.027
				c3.623,0,6.826,2.309,7.972,5.746l12.267,36.801c4.901,14.704,18.608,24.583,34.107,24.583h51.082
				c19.824,0,35.952-16.128,35.952-35.952v-35.077C289.88,144.972,270.184,125.277,245.974,125.277z"/>
		</g>
		<path style="fill:#313052;" d="M293.168,149.807c-5.463-14.654-19.843-59.327-19.843-59.327
			c-9.359-27.984-35.471-46.785-64.978-46.785H88.653c-29.507,0-55.619,18.801-64.978,46.784c0,0-14.38,44.674-19.843,59.328
			C1.573,155.866,0,162.326,0,169.182v35.077c0,23.75,19.322,43.072,43.072,43.072h51.082c18.569,0,34.99-11.836,40.862-29.451
			l12.267-36.801c0.175-0.525,0.664-0.878,1.217-0.878s1.043,0.353,1.218,0.878l12.267,36.801
			c5.872,17.616,22.293,29.451,40.862,29.451h51.082c23.75,0,43.072-19.322,43.072-43.072v-35.077
			C297,162.326,295.427,155.865,293.168,149.807z M42.003,96.608c6.719-20.09,25.466-33.588,46.65-33.588h119.695
			c21.184,0,39.931,13.498,46.65,33.589l8.211,24.55c-5.386-1.939-11.188-3.002-17.233-3.002H51.026
			c-6.046,0-11.847,1.063-17.234,3.002L42.003,96.608z M282.76,204.26c0,15.924-12.909,28.832-28.832,28.832h-51.082
			c-12.41,0-23.428-7.941-27.353-19.715l-12.267-36.801c-2.113-6.339-8.045-10.614-14.726-10.614s-12.614,4.276-14.726,10.614
			l-12.267,36.801c-3.924,11.773-14.942,19.715-27.353,19.715H43.072c-15.924,0-28.832-12.909-28.832-28.832v-35.077
			c0-20.316,16.47-36.786,36.786-36.786h194.949c20.316,0,36.786,16.47,36.786,36.786v35.077H282.76z"/>
	</g>
</g>
<g>
</g>
<g>
</g>
<g>
</g>
<g>
</g>
<g>
</g>
<g>
</g>
<g>
</g>
<g>
</g>
<g>
</g>
<g>
</g>
<g>
</g>
<g>
</g>
<g>
</g>
<g>
</g>
<g>
</g>
</svg>
