<svg width="270" height="384" viewBox="0 0 270 384" fill="none" xmlns="http://www.w3.org/2000/svg">
<g filter="url(#filter0_d_4_19)">
<path d="M265.333 200V180C265.333 177.239 263.094 175 260.333 175H240.333C237.572 175 235.333 177.239 235.333 180V200C235.333 211.028 226.361 220 215.333 220H215C195.377 220 186.992 195.635 202.69 174.192C202.963 173.829 203.234 173.462 203.503 173.094C203.538 173.049 203.568 173.005 203.603 172.959C203.603 172.959 203.603 172.958 203.603 172.959V172.959C203.603 172.959 203.602 172.958 203.603 172.958C216.945 154.643 225 130.921 225 105.001C225 47.011 184.706 0 135 0C85.294 0 45 47.011 45 105.001C45 130.922 53.0547 154.643 66.3974 172.958C66.3975 172.958 66.3973 172.959 66.397 172.959V172.959C66.3968 172.958 66.3965 172.959 66.3967 172.959C66.4314 173.004 66.4612 173.049 66.497 173.094C66.766 173.462 67.036 173.829 67.31 174.192C83.008 195.635 74.623 220 55 220H54.666C43.638 220 34.666 211.028 34.666 200V180C34.666 177.239 32.4274 175 29.666 175H9.666C6.90458 175 4.666 177.239 4.666 180V200C4.666 225.356 23.6386 246.359 48.1326 249.569C51.329 249.988 53.7062 253.053 52.0158 255.798C48.4966 261.513 42.1914 265.333 35 265.333H15C12.2386 265.333 10 267.572 10 270.333V290.333C10 293.094 12.2386 295.333 15 295.333H35C48.3682 295.333 60.5263 290.059 69.5056 281.483C72.6651 278.465 80 280.631 80 285V285C80 296.028 71.028 305 60 305H40C37.2386 305 35 307.239 35 310V330C35 332.761 37.2386 335 40 335H60C72.89 335 84.6549 330.097 93.5298 322.058C97.009 318.906 105 321.306 105 326V326C105 335.32 98.5913 343.172 89.949 345.38C87.2735 346.064 85 348.239 85 351V371C85 373.761 87.2451 376.026 89.9929 375.753C115.228 373.239 135 351.885 135 326C135 351.885 154.772 373.239 180.007 375.753C182.755 376.026 185 373.761 185 371V351C185 348.239 182.726 346.064 180.051 345.38C171.409 343.172 165 335.32 165 326V326C165 321.306 172.991 318.906 176.47 322.058C185.345 330.097 197.11 335 210 335H230C232.761 335 235 332.761 235 330V310C235 307.239 232.761 305 230 305H210C198.972 305 190 296.028 190 285V285C190 280.631 197.335 278.465 200.494 281.483C209.473 290.059 221.632 295.333 235 295.333H255C257.761 295.333 260 293.094 260 290.333V270.333C260 267.572 257.761 265.333 255 265.333H235C227.809 265.333 221.503 261.513 217.984 255.798C216.294 253.053 218.671 249.988 221.867 249.57C246.362 246.359 265.333 225.356 265.333 200ZM95 170.001C89.477 170.001 85 165.524 85 160.001C85 154.478 89.477 150.001 95 150.001C100.523 150.001 105 154.478 105 160.001C105 165.524 100.523 170.001 95 170.001ZM175 170.001C169.477 170.001 165 165.524 165 160.001C165 154.478 169.477 150.001 175 150.001C180.523 150.001 185 154.478 185 160.001C185 165.524 180.523 170.001 175 170.001Z" fill="white"/>
</g>
<defs>
<filter id="filter0_d_4_19" x="0.666" y="0" width="268.667" height="383.775" filterUnits="userSpaceOnUse" color-interpolation-filters="sRGB">
<feFlood flood-opacity="0" result="BackgroundImageFix"/>
<feColorMatrix in="SourceAlpha" type="matrix" values="0 0 0 0 0 0 0 0 0 0 0 0 0 0 0 0 0 0 127 0" result="hardAlpha"/>
<feOffset dy="4"/>
<feGaussianBlur stdDeviation="2"/>
<feComposite in2="hardAlpha" operator="out"/>
<feColorMatrix type="matrix" values="0 0 0 0 0 0 0 0 0 0 0 0 0 0 0 0 0 0 0.25 0"/>
<feBlend mode="normal" in2="BackgroundImageFix" result="effect1_dropShadow_4_19"/>
<feBlend mode="normal" in="SourceGraphic" in2="effect1_dropShadow_4_19" result="shape"/>
</filter>
</defs>
</svg>
