<?xml version="1.0" standalone="no"?>
<!DOCTYPE svg PUBLIC "-//W3C//DTD SVG 20010904//EN"
 "http://www.w3.org/TR/2001/REC-SVG-20010904/DTD/svg10.dtd">
<svg version="1.0" xmlns="http://www.w3.org/2000/svg"
 width="200.000000pt" height="600.000000pt" viewBox="0 0 910.000000 1280.000000"
 preserveAspectRatio="xMidYMid meet">
<g transform="translate(0.000000,1280.000000) scale(0.100000,-0.100000)"
fill="#ffffff50" stroke="none">
<path d="M5766 12773 c-25 -50 -73 -197 -141 -429 -82 -284 -115 -386 -127
-399 -17 -16 -2 189 31 430 34 241 40 373 17 343 -7 -10 -29 -25 -50 -33 -24
-10 -36 -22 -36 -35 0 -10 -5 -22 -10 -25 -22 -14 -101 -197 -263 -614 -13
-34 -28 -58 -31 -52 -4 6 -12 103 -19 216 -6 113 -15 205 -20 205 -4 0 -37
-30 -73 -67 -71 -76 -75 -84 -158 -373 -70 -246 -205 -872 -221 -1032 -5 -49
-10 -58 -26 -58 -10 0 -19 5 -19 12 0 7 -11 28 -23 47 -13 20 -45 74 -72 121
-90 161 -195 310 -277 396 -45 47 -91 90 -102 96 -28 15 -52 -18 -61 -82 -4
-27 -11 -50 -16 -50 -11 0 -46 68 -93 183 -44 106 -91 185 -211 352 -49 69
-103 144 -119 166 -16 23 -48 61 -72 86 l-44 45 0 -69 c0 -40 8 -95 20 -133
11 -36 22 -80 25 -97 4 -35 -10 -45 -19 -15 -4 10 -22 36 -41 58 -19 21 -35
42 -35 46 0 3 -38 52 -85 108 -47 56 -85 106 -85 111 0 5 -15 26 -34 46 -18
21 -35 47 -37 58 -3 14 -13 21 -37 23 -17 2 -32 1 -32 -1 0 -2 13 -48 30 -103
16 -54 30 -116 30 -137 l0 -39 -60 62 c-33 34 -60 66 -60 71 0 5 -15 26 -33
46 -19 21 -51 66 -72 100 -21 35 -44 68 -51 74 -25 20 -16 -63 21 -213 20 -77
34 -148 32 -157 -5 -21 -173 147 -280 281 -61 76 -95 109 -160 151 -45 30 -92
57 -105 60 -22 5 -23 3 -16 -26 26 -122 61 -184 363 -642 167 -253 332 -500
366 -550 58 -85 127 -246 111 -262 -9 -9 -48 20 -85 63 -18 22 -136 179 -261
349 -149 201 -257 338 -309 390 l-81 80 0 -57 c0 -33 9 -80 21 -112 21 -57
315 -541 459 -756 122 -183 240 -344 401 -546 222 -280 241 -300 328 -344 78
-39 78 -41 6 -57 -78 -18 -104 2 -297 217 -96 107 -314 332 -485 499 -285 279
-317 307 -394 347 -46 24 -85 44 -86 44 -2 0 -3 -12 -3 -27 0 -33 39 -99 81
-138 18 -16 72 -84 120 -150 49 -66 101 -136 118 -155 83 -100 63 -131 -40
-62 -102 68 -318 195 -354 208 -16 6 -46 21 -65 33 -19 11 -43 21 -52 21 -20
0 -17 -10 36 -152 48 -130 47 -136 -14 -93 -59 41 -660 360 -910 482 -257 125
-515 226 -615 240 -25 3 -45 3 -45 -1 0 -4 13 -32 29 -64 40 -77 91 -124 256
-231 181 -116 200 -128 224 -136 12 -4 21 -15 21 -26 0 -19 -5 -20 -88 -13
-68 5 -152 26 -382 94 -162 49 -308 90 -324 92 l-30 3 3 -59 c4 -98 6 -99 286
-210 176 -69 396 -134 518 -151 36 -6 47 -11 47 -25 0 -22 -12 -24 -385 -50
-367 -26 -379 -28 -418 -56 -18 -13 -42 -29 -54 -35 -13 -7 -23 -15 -23 -18 1
-3 47 -28 103 -54 l102 -48 261 55 c374 79 526 106 635 113 114 7 138 2 182
-37 19 -16 46 -34 61 -40 18 -7 26 -16 24 -28 -2 -13 -18 -19 -65 -24 -34 -4
-95 -16 -135 -27 -149 -42 -435 -140 -484 -166 l-51 -26 9 -62 c4 -34 10 -73
13 -87 l6 -25 157 12 c275 22 348 39 672 156 109 40 174 59 280 84 18 4 -10
-30 -105 -126 -71 -71 -127 -132 -125 -134 18 -17 141 -27 319 -27 384 0 542
-23 780 -112 130 -48 409 -186 461 -228 l25 -20 -93 0 c-59 0 -103 5 -120 14
-48 24 -478 165 -584 192 -141 34 -296 41 -461 20 -72 -10 -265 -21 -445 -26
-345 -10 -424 -20 -637 -74 -180 -46 -352 -75 -760 -127 -268 -34 -335 -46
-359 -62 -16 -11 -45 -26 -65 -33 -29 -10 -37 -18 -39 -42 -3 -29 -2 -29 59
-36 136 -14 273 -8 699 29 102 9 250 15 330 13 l145 -3 -60 -31 c-123 -65
-213 -76 -730 -89 -214 -6 -331 -14 -418 -31 -23 -5 -26 -8 -16 -21 7 -8 35
-26 63 -40 104 -53 108 -53 364 -43 339 14 467 26 653 60 90 17 184 30 209 30
l45 -1 -55 -29 c-67 -35 -77 -38 -475 -143 -176 -47 -366 -99 -422 -117 -98
-31 -103 -34 -103 -60 0 -28 1 -28 73 -35 52 -5 106 -1 197 14 165 27 255 54
495 149 204 81 275 102 346 102 l41 0 -30 -25 c-17 -14 -32 -25 -35 -25 -3 0
-28 -16 -56 -35 -29 -19 -234 -127 -457 -241 -324 -165 -407 -211 -415 -231
-20 -52 -17 -53 135 -17 289 68 364 95 562 206 78 43 145 78 150 78 4 0 43 16
86 37 43 20 81 33 85 30 9 -10 -36 -56 -72 -74 -16 -8 -50 -34 -75 -58 -25
-23 -128 -108 -230 -187 l-185 -145 -18 -66 c-9 -36 -17 -88 -17 -116 0 -46 2
-50 18 -42 9 5 52 25 95 45 44 20 226 136 415 264 580 394 1014 682 1066 710
46 23 64 26 181 29 l130 3 -45 -18 c-70 -27 -90 -39 -422 -264 -654 -442
-1038 -721 -1181 -857 -180 -172 -296 -381 -337 -606 -31 -173 -61 -487 -67
-690 l-6 -220 28 25 c45 42 81 126 99 235 39 231 89 464 111 515 13 30 26 67
29 83 7 31 36 37 36 7 0 -11 -18 -187 -40 -391 -22 -204 -40 -399 -40 -432 l0
-61 55 54 c68 67 69 71 180 525 47 193 89 359 94 370 18 37 12 -175 -8 -320
-37 -265 -37 -273 -2 -325 17 -25 31 -53 31 -64 0 -15 5 -17 28 -11 36 9 44
19 74 95 24 58 28 91 42 310 9 135 18 299 22 365 7 136 20 189 68 263 38 60
29 71 97 -104 23 -60 52 -121 65 -136 12 -16 26 -38 29 -49 9 -26 20 -12 35
41 11 40 40 364 40 445 0 51 1 54 38 74 90 48 163 83 167 79 3 -3 8 -80 12
-172 3 -91 9 -165 12 -164 3 2 35 18 69 37 83 45 107 87 173 296 27 88 56 173
62 189 l13 28 39 -66 c21 -37 54 -85 73 -107 34 -39 35 -40 55 -22 32 28 105
147 160 257 27 56 58 111 70 123 11 12 54 37 96 54 108 45 177 80 320 166 197
118 247 127 204 39 -35 -71 -156 -206 -423 -471 -274 -271 -350 -356 -350
-385 0 -32 42 -50 141 -61 109 -11 141 -22 133 -44 -9 -22 -146 -110 -328
-209 -258 -141 -336 -199 -336 -253 0 -32 33 -43 124 -43 121 0 123 -32 8
-127 -31 -27 -106 -80 -165 -118 -381 -248 -413 -272 -394 -291 7 -7 46 1 152
30 90 25 84 2 -35 -133 -39 -44 -104 -105 -145 -136 -82 -62 -95 -78 -95 -126
0 -31 0 -32 41 -26 72 10 251 125 444 287 66 55 90 64 80 28 -22 -71 -57 -132
-117 -201 -192 -223 -293 -433 -248 -517 14 -26 65 -42 98 -29 41 15 97 75
154 164 123 191 145 222 177 258 41 45 77 51 66 10 -3 -15 -41 -104 -84 -198
-98 -213 -121 -274 -124 -333 -2 -44 0 -47 24 -50 69 -8 155 117 449 653 208
378 303 538 358 598 56 59 65 26 50 -165 -9 -104 -9 -143 0 -163 24 -52 71
-23 163 101 62 84 163 256 338 573 89 162 169 304 177 315 13 19 14 18 14 -17
0 -131 -101 -429 -293 -867 -52 -118 -99 -231 -105 -250 -15 -44 -18 -92 -8
-108 10 -16 45 -15 76 3 39 22 69 19 80 -9 12 -32 0 -101 -44 -262 -60 -216
-80 -356 -56 -394 7 -12 12 -11 30 5 35 32 90 132 140 255 59 146 64 148 176
55 43 -36 86 -64 94 -63 41 8 104 308 195 928 36 245 69 454 72 465 4 15 12
-1 29 -55 13 -44 32 -82 45 -92 76 -63 244 47 373 242 75 114 123 153 221 177
59 14 77 14 218 -1 85 -9 168 -21 185 -27 45 -15 68 2 87 63 8 28 15 79 15
113 0 178 -151 526 -252 580 l-37 19 -60 -29 c-34 -16 -63 -36 -66 -44 -3 -9
-23 -27 -44 -41 -47 -29 -58 -48 -65 -119 -3 -31 -13 -62 -23 -73 -28 -31
-107 -67 -184 -85 -65 -14 -73 -14 -115 2 -77 29 -111 96 -140 273 -21 132
-33 179 -61 234 -31 63 -53 76 -154 90 -140 19 -139 19 -168 -31 -14 -24 -30
-44 -36 -45 -20 -2 -97 175 -82 190 2 2 17 0 33 -6 43 -17 69 -5 108 50 20 27
40 50 46 50 5 0 32 -20 59 -45 57 -50 94 -61 182 -51 117 12 128 -5 188 -293
44 -211 62 -254 104 -259 22 -3 33 6 69 55 24 32 67 105 97 161 29 56 71 122
93 146 32 38 48 47 96 57 77 16 123 40 193 105 32 30 64 54 71 54 6 0 33 -23
59 -51 30 -33 49 -47 54 -39 18 29 -38 259 -100 411 -25 61 -45 121 -45 134 0
67 79 74 310 30 233 -45 269 -36 194 47 -19 22 -34 45 -32 51 2 7 22 20 44 30
106 49 111 57 64 110 -30 35 -143 99 -233 132 -26 10 -59 29 -73 42 -23 21
-26 30 -22 76 5 66 48 134 173 277 343 393 518 706 650 1160 62 213 49 249
-42 120 -134 -190 -191 -255 -209 -238 -10 11 18 88 118 331 103 250 135 345
125 371 -6 15 -10 15 -34 2 -62 -32 -146 -141 -253 -326 -119 -206 -146 -232
-138 -132 6 68 48 176 263 668 86 195 158 368 162 384 9 50 -23 37 -96 -38
-61 -63 -93 -111 -197 -296 -57 -102 -69 -100 -60 10 4 49 13 145 21 214 28
250 21 350 -19 273z"/>
<path d="M7840 11628 c-56 -39 -207 -168 -370 -317 -86 -78 -144 -123 -185
-142 -76 -35 -115 -45 -115 -29 0 28 33 66 220 255 133 134 201 210 206 229 7
29 6 29 -27 22 -19 -3 -56 -21 -84 -39 -27 -19 -68 -45 -90 -59 -22 -14 -116
-94 -209 -179 -221 -201 -601 -527 -746 -640 -200 -157 -344 -247 -560 -352
-113 -55 -216 -108 -230 -117 -14 -10 -36 -21 -50 -25 -14 -4 -33 -14 -43 -23
-17 -15 -16 -18 20 -54 43 -44 57 -46 223 -23 96 13 323 70 367 93 10 5 30 12
46 16 37 9 36 -13 -4 -76 -30 -47 -31 -49 -14 -74 9 -14 44 -39 78 -54 129
-62 248 -65 382 -10 44 18 107 34 140 37 57 5 59 4 43 -12 -9 -10 -32 -27 -51
-39 -20 -11 -70 -45 -113 -73 -43 -29 -94 -56 -113 -60 -37 -7 -142 7 -396 51
-202 36 -418 51 -506 36 -43 -7 -69 -16 -66 -23 2 -6 44 -35 93 -64 49 -28
104 -68 122 -87 42 -47 44 -110 5 -190 l-27 -55 27 -51 c33 -64 33 -75 2 -112
-54 -64 -44 -88 237 -558 204 -340 349 -606 411 -750 76 -179 122 -375 162
-690 41 -319 68 -460 115 -600 27 -78 139 -321 186 -400 64 -110 147 -167 266
-185 l47 -7 -24 88 c-30 113 -36 128 -198 494 -75 168 -141 325 -147 350 -6
25 -10 70 -8 100 l3 55 52 -100 c28 -55 117 -217 196 -360 120 -216 151 -263
179 -280 19 -11 51 -33 71 -50 56 -46 95 -75 101 -75 12 0 5 166 -8 218 -19
70 -52 131 -145 271 -155 233 -305 500 -321 573 -7 29 -10 69 -8 87 l3 35 40
-65 c21 -35 58 -89 81 -119 22 -30 92 -129 154 -220 145 -212 168 -240 190
-240 13 0 20 -9 22 -27 2 -19 10 -29 23 -31 11 -2 37 -20 58 -40 l37 -36 0 70
c0 39 -5 86 -12 105 -17 51 -228 424 -327 579 -48 74 -161 236 -251 360 -233
320 -588 867 -679 1048 -16 32 -36 64 -45 71 -14 12 -14 14 0 29 19 18 19 18
70 -81 63 -122 222 -323 373 -469 207 -202 906 -753 1130 -892 123 -76 163
-92 274 -111 50 -9 166 -41 257 -70 154 -51 321 -95 356 -95 24 0 11 42 -42
133 -25 44 -44 81 -41 83 2 2 41 -10 86 -26 73 -27 231 -53 231 -38 0 36 -76
163 -131 217 -19 19 -97 58 -226 112 -315 131 -403 180 -371 206 20 16 77 32
158 43 127 18 140 21 140 30 0 10 -55 27 -300 94 -184 49 -361 111 -555 194
-176 74 -570 261 -624 296 -41 26 -43 29 -25 39 38 22 219 10 374 -23 80 -17
197 -42 260 -56 193 -40 349 -29 321 24 -5 10 -41 35 -80 57 -39 22 -71 43
-71 47 0 29 280 47 726 48 261 0 358 6 349 20 -9 15 -140 59 -205 69 -35 6
-154 15 -265 21 -407 21 -559 36 -608 62 -30 15 -11 25 70 36 126 18 179 21
574 42 208 11 398 24 424 29 88 17 85 48 -7 62 -29 5 -179 20 -333 34 -403 37
-529 55 -508 76 5 5 53 16 108 24 88 13 202 22 738 55 87 5 167 14 177 20 42
23 17 71 -48 91 -65 20 -409 23 -567 4 -162 -19 -667 -32 -704 -18 -29 11 49
34 459 133 297 71 461 122 498 156 l27 24 -24 20 c-32 27 -89 26 -211 -5 -315
-80 -1380 -201 -1380 -157 0 17 77 36 340 87 407 79 690 151 690 176 0 16 -95
10 -455 -26 -462 -46 -765 -60 -765 -35 0 14 117 60 367 144 271 92 419 150
490 192 59 34 113 92 113 121 0 48 -86 43 -331 -18 -142 -35 -249 -49 -249
-34 0 4 7 19 14 34 10 19 31 34 63 46 190 71 464 205 546 268 56 42 98 101 90
125 -9 23 -79 12 -338 -53 -143 -36 -263 -64 -268 -62 -4 1 90 54 210 116 405
212 526 284 594 352 44 44 48 63 17 80 -36 20 -127 4 -241 -42 -59 -23 -110
-39 -113 -36 -13 13 27 57 148 166 68 60 154 146 192 190 38 44 77 83 87 86
20 7 44 43 35 52 -8 8 -96 -36 -396 -199 -327 -178 -390 -211 -390 -202 0 11
42 67 155 204 128 156 195 248 195 267 0 23 -43 14 -90 -19z"/>
<path d="M5244 9376 c-3 -9 4 -39 16 -67 12 -28 28 -81 36 -118 20 -93 39
-438 30 -544 -7 -82 -9 -88 -29 -85 -24 3 -149 148 -199 230 -10 15 -22 28
-28 28 -25 0 -3 -62 78 -222 202 -398 255 -621 184 -772 -16 -34 -46 -78 -67
-98 -33 -33 -44 -38 -86 -38 -50 0 -177 31 -324 79 l-89 29 -17 -36 c-9 -21
-26 -46 -39 -57 -55 -48 -80 -96 -80 -152 0 -140 180 -824 231 -878 19 -19 19
-18 19 46 0 36 -11 162 -25 279 -25 206 -30 320 -11 275 44 -109 75 -204 132
-400 96 -331 130 -423 172 -465 19 -19 45 -51 58 -72 38 -60 44 -56 44 25 0
47 -27 223 -75 496 -41 232 -75 434 -75 448 0 48 17 11 43 -97 48 -194 187
-611 234 -702 25 -49 49 -88 54 -88 5 0 9 54 9 120 0 107 -6 148 -60 405 -34
162 -59 308 -59 338 1 29 4 43 6 33 3 -11 61 -179 130 -375 69 -196 135 -383
145 -416 11 -33 27 -77 36 -98 15 -36 16 -37 33 -20 24 25 59 150 59 212 0 29
-25 159 -55 290 -30 130 -62 281 -70 335 -20 136 -46 506 -35 506 7 0 38 -119
125 -480 161 -667 182 -739 250 -835 20 -27 50 -72 68 -100 l32 -50 3 63 c2
40 -7 112 -23 193 -15 72 -24 133 -22 136 10 9 86 -111 151 -237 35 -69 76
-136 90 -149 l26 -24 0 45 c0 86 -40 283 -122 593 -116 445 -188 644 -343 955
-29 58 -78 162 -109 232 -54 122 -56 131 -55 210 l0 83 51 -100 c28 -55 112
-226 186 -380 301 -626 383 -840 492 -1276 61 -244 97 -353 128 -390 29 -36
47 -36 68 -4 35 54 -4 245 -140 695 -129 427 -233 715 -348 970 -121 268 -211
513 -252 690 -8 35 -13 66 -11 68 10 10 75 -118 267 -523 115 -242 230 -475
256 -519 52 -87 101 -136 135 -136 54 1 70 42 57 147 -24 189 -71 292 -378
833 -300 528 -490 752 -747 881 -95 47 -152 60 -161 35z"/>
<path d="M4233 7371 c-139 -104 -183 -162 -183 -240 0 -66 23 -117 85 -188 25
-28 45 -53 45 -55 0 -2 -19 -2 -43 0 -31 3 -49 -2 -67 -16 -23 -18 -25 -27
-23 -88 3 -94 34 -190 78 -241 19 -23 35 -43 35 -46 0 -2 -18 -7 -39 -11 -25
-4 -46 -15 -55 -28 -22 -31 -20 -106 4 -203 21 -82 41 -122 66 -132 23 -9 16
-21 -10 -16 -58 11 -91 -85 -84 -241 5 -99 24 -150 72 -195 35 -33 33 -41 -13
-41 -69 0 -91 -39 -91 -160 0 -128 15 -175 73 -237 l50 -53 -45 0 c-24 0 -52
-6 -62 -13 -27 -20 -35 -80 -25 -184 10 -112 24 -168 50 -204 25 -35 24 -39
-6 -39 -53 0 -74 -92 -56 -255 8 -68 19 -116 36 -151 14 -28 25 -53 25 -56 0
-3 -11 -9 -25 -12 -47 -12 -59 -46 -52 -149 7 -102 29 -187 59 -230 19 -26 19
-27 1 -33 -71 -21 -99 -63 -109 -161 -11 -100 -1 -128 73 -205 l66 -68 -66 0
c-97 0 -102 -10 -94 -188 4 -75 14 -168 22 -207 8 -38 15 -71 15 -73 0 -1 -11
-7 -24 -12 -34 -13 -46 -62 -46 -196 0 -153 4 -170 51 -197 47 -26 49 -37 9
-37 -46 0 -80 -21 -101 -62 -28 -55 -45 -227 -32 -322 10 -72 14 -79 67 -138
l56 -63 -67 -11 c-54 -8 -71 -16 -93 -41 -40 -45 -52 -112 -40 -229 11 -108
14 -116 64 -163 20 -19 36 -43 36 -52 0 -16 -4 -15 -51 4 -45 19 -53 20 -76 7
-38 -22 -60 -55 -93 -145 -44 -116 -55 -192 -40 -268 45 -232 269 -318 606
-232 105 27 528 146 551 155 38 16 47 75 48 320 0 229 -6 304 -28 333 -10 15
-21 15 -80 6 -38 -6 -71 -8 -74 -5 -12 12 19 52 62 79 62 40 84 80 106 204 10
58 19 111 19 116 0 10 -172 3 -202 -8 -27 -11 -10 32 23 58 110 84 111 86 133
222 9 55 18 113 21 129 5 28 4 28 -32 23 -21 -4 -75 -9 -120 -13 -69 -6 -83
-4 -83 7 0 18 170 199 187 199 17 0 33 65 33 135 0 88 -3 90 -94 76 -42 -6
-83 -11 -91 -11 -31 0 -13 30 43 72 31 24 65 59 74 79 43 86 30 248 -22 301
-25 24 -36 28 -87 28 l-58 1 36 32 c21 17 55 44 77 59 47 31 62 70 62 161 0
100 -23 132 -112 151 -38 9 -35 30 12 86 56 67 82 132 88 218 6 91 -16 155
-62 183 -17 10 -39 19 -49 19 -32 0 -30 28 7 71 45 54 60 120 61 271 0 103 -2
120 -21 145 -12 15 -31 29 -43 31 -11 2 -21 5 -21 7 0 1 13 27 28 57 32 60 57
191 48 243 -9 45 -29 58 -84 57 l-47 -2 57 53 c31 28 64 67 73 86 26 52 30
129 11 214 -18 82 -46 127 -77 127 -18 0 -17 3 8 24 27 24 28 27 27 123 -1
106 -18 170 -56 210 -12 13 -30 23 -40 23 -23 0 -23 15 0 48 40 58 72 184 72
283 0 76 -12 98 -60 108 -38 8 -37 5 -20 91 17 81 24 605 10 715 -14 115 -42
198 -73 220 -44 31 -89 20 -174 -44z"/>
<path d="M3035 1010 c-110 -12 -521 -77 -590 -95 -42 -10 -55 -20 -82 -58 -42
-60 -51 -95 -27 -103 11 -3 71 -27 134 -54 63 -27 140 -56 170 -64 95 -28 95
-24 -11 -133 -52 -54 -106 -114 -119 -133 -14 -19 -33 -44 -43 -55 -10 -11
-27 -35 -38 -54 l-20 -34 63 7 c187 19 223 19 256 2 32 -17 53 -64 67 -154 14
-87 13 -85 50 -78 19 4 119 49 223 101 104 52 199 95 211 95 12 0 37 -16 57
-35 44 -45 71 -45 190 -3 104 37 114 35 206 -33 74 -56 115 -67 173 -45 25 10
73 37 108 59 56 38 68 42 123 42 64 0 73 -4 292 -120 91 -49 96 -50 193 -53
93 -4 111 1 90 23 -15 17 -100 215 -92 215 5 0 68 -9 142 -21 137 -21 216 -21
229 1 4 7 13 39 20 72 l13 59 21 -20 c30 -27 327 -211 342 -211 7 0 19 -3 27
-6 11 -4 19 12 32 70 20 91 37 108 100 99 52 -7 79 15 89 73 11 63 27 94 51
100 13 3 63 1 112 -5 48 -6 146 -11 218 -11 l129 0 -68 69 c-93 94 -236 163
-466 225 -331 89 -490 111 -750 103 -228 -7 -347 -29 -670 -127 -74 -22 -180
-52 -236 -66 -152 -40 -149 -42 -329 137 -124 125 -162 156 -221 186 -66 32
-80 35 -175 38 -57 2 -144 0 -194 -5z"/>
</g>
</svg>
