<?xml version="1.0" standalone="no"?>
<!DOCTYPE svg PUBLIC "-//W3C//DTD SVG 20010904//EN"
 "http://www.w3.org/TR/2001/REC-SVG-20010904/DTD/svg10.dtd">
<svg version="1.0" xmlns="http://www.w3.org/2000/svg"
 width="1280.000000pt" height="1137.000000pt" viewBox="0 0 1280.000000 1137.000000"
 preserveAspectRatio="xMidYMid meet">
<metadata>
Created by potrace 1.15, written by Peter Selinger 2001-2017
</metadata>
<g transform="translate(0.000000,1137.000000) scale(0.100000,-0.100000)"
fill="#ffffff50" stroke="none">
<path d="M5225 11364 c-11 -2 -57 -12 -103 -21 l-84 -16 -33 -53 c-19 -29 -75
-97 -125 -151 -50 -54 -110 -128 -133 -165 -36 -57 -45 -66 -65 -61 -12 3 -62
6 -110 7 -73 1 -97 -3 -139 -23 l-51 -23 14 -52 c8 -28 17 -124 21 -212 l6
-162 -74 -7 c-68 -6 -133 -27 -144 -45 -2 -4 7 -67 20 -140 14 -73 23 -135 20
-138 -9 -10 -125 97 -380 350 -143 142 -286 278 -319 303 l-59 45 -43 -36
c-24 -19 -44 -32 -44 -27 0 4 11 29 25 55 l25 47 -23 15 c-46 31 -240 97 -248
85 -4 -7 -12 -38 -19 -71 -7 -32 -16 -55 -20 -51 -4 4 -13 55 -19 113 -13 121
-15 124 -126 176 -103 48 -234 88 -480 149 -121 30 -229 57 -241 61 -18 5 -23
-1 -34 -43 -6 -26 -14 -56 -17 -65 -2 -10 -26 -24 -56 -34 -29 -9 -82 -32
-119 -50 -72 -36 -69 -31 -91 -167 -6 -38 8 -42 98 -28 60 10 79 10 107 -2 33
-14 34 -16 62 -139 l28 -125 123 5 123 5 21 -69 c12 -38 35 -107 53 -153 l32
-83 45 6 c25 3 75 21 111 38 154 76 150 76 71 -4 -39 -40 -77 -83 -86 -95 -14
-20 -13 -23 20 -43 19 -12 35 -22 35 -23 0 -1 -93 -2 -208 -3 -420 -2 -847
-93 -1187 -252 l-99 -47 79 -6 c87 -8 225 -29 225 -36 0 -2 -14 -16 -30 -30
-17 -14 -51 -53 -75 -88 l-45 -62 -162 -53 c-206 -66 -400 -137 -553 -202 -66
-28 -122 -52 -124 -54 -2 -2 18 -25 45 -51 27 -27 77 -78 112 -116 35 -37 71
-67 81 -67 10 0 63 16 117 36 l99 35 -25 -28 c-13 -15 -38 -43 -55 -61 l-30
-34 40 17 c22 9 47 20 55 23 8 3 88 48 178 99 90 51 165 93 168 93 4 0 -49
-73 -130 -179 -6 -8 45 23 112 68 68 45 126 81 128 78 2 -2 -22 -60 -55 -128
-32 -68 -55 -125 -51 -127 5 -2 62 12 129 31 67 19 121 31 121 28 -1 -3 -32
-44 -69 -91 -38 -47 -68 -86 -66 -88 8 -8 300 171 373 229 31 24 42 24 42 -1
0 -42 31 -18 114 88 31 39 60 72 65 72 11 0 36 -60 62 -145 12 -38 25 -75 31
-82 7 -9 -1 -14 -29 -21 -697 -172 -1124 -358 -1493 -652 -129 -103 -544 -516
-625 -624 l-60 -79 0 -86 c0 -106 9 -290 13 -286 2 2 14 53 27 113 21 97 62
218 71 209 2 -2 -3 -55 -11 -117 -8 -63 -15 -119 -15 -124 0 -29 45 63 87 179
26 71 49 123 50 115 1 -8 5 -64 9 -124 4 -66 9 -104 14 -95 5 8 23 91 41 184
17 94 35 174 39 178 15 17 60 -256 60 -364 0 -81 15 -63 45 54 39 156 80 295
97 337 14 34 15 32 10 -49 -3 -46 1 -123 8 -170 l13 -86 13 61 c7 34 25 88 40
120 l28 59 18 -60 c20 -69 48 -135 57 -135 4 0 14 69 24 153 21 179 36 257 47
236 4 -8 13 -68 20 -134 6 -66 13 -122 15 -124 2 -1 17 23 33 55 17 33 56 95
87 139 63 89 81 110 72 83 -14 -41 -28 -186 -22 -231 l7 -50 78 187 c42 102
79 189 83 192 3 3 1 -12 -3 -33 -5 -21 -12 -83 -15 -138 l-6 -100 22 39 c12
22 39 87 61 144 21 58 48 121 58 141 l19 36 0 -95 c-1 -108 9 -190 22 -190 5
0 9 4 9 9 0 16 113 162 182 236 l65 69 33 -134 c30 -124 50 -179 50 -138 0 50
109 228 203 332 l54 59 -4 -84 c-2 -46 0 -104 5 -129 l9 -45 13 30 c50 116 95
203 141 274 l54 83 5 -173 5 -173 89 189 c49 105 92 192 94 195 3 3 2 -6 -1
-20 -26 -127 -37 -191 -37 -225 l1 -40 15 34 c8 19 43 85 79 145 35 61 67 123
70 139 4 15 11 27 17 27 5 0 7 -4 3 -9 -10 -17 51 -341 68 -357 2 -2 14 30 27
72 22 74 123 289 154 329 14 18 15 13 16 -72 0 -55 4 -93 10 -93 6 0 10 6 10
13 0 17 112 165 157 206 l37 34 13 -37 c12 -35 11 -41 -8 -67 -23 -32 -22 -33
16 -19 22 8 29 6 54 -22 l28 -32 -43 -90 c-42 -85 -52 -97 -162 -195 -212
-190 -532 -513 -664 -671 -170 -204 -372 -470 -504 -666 -204 -302 -371 -698
-448 -1063 -48 -223 -44 -315 19 -456 l22 -50 8 60 c11 88 16 92 55 40 18 -24
35 -43 37 -41 2 2 4 104 4 227 l-1 224 47 -85 47 -85 18 41 c9 22 23 70 30
106 l12 65 79 -81 c70 -72 78 -78 72 -51 -3 17 -8 86 -11 155 l-6 125 86 -85
c47 -46 86 -82 86 -79 0 3 -23 66 -51 139 -27 72 -49 134 -47 135 2 2 36 -36
77 -83 64 -76 73 -83 68 -56 -3 17 -9 67 -13 110 -7 75 -6 78 10 64 20 -16 86
-110 123 -174 l23 -41 0 47 c0 26 -7 79 -15 119 -9 40 -14 74 -11 76 2 2 14
-22 27 -53 12 -32 24 -53 26 -48 1 5 -14 75 -35 156 l-38 147 71 -67 c38 -37
85 -78 103 -91 l34 -24 -22 43 c-24 46 -44 99 -65 170 l-14 45 35 -40 c20 -22
50 -64 67 -92 17 -29 35 -53 39 -53 11 0 20 121 17 224 -2 53 -3 96 -3 96 1 0
28 -32 60 -72 93 -114 86 -108 79 -63 -4 22 -18 71 -31 109 -13 38 -23 71 -21
72 1 1 30 -37 65 -86 l63 -89 -27 -43 c-58 -91 -150 -323 -168 -420 -6 -32 -4
-39 16 -49 13 -6 33 -21 46 -32 29 -27 29 -90 2 -313 -12 -91 -19 -206 -18
-257 l3 -92 39 75 38 74 18 -34 c10 -19 30 -78 45 -130 15 -52 37 -115 48
-140 l21 -44 6 30 c9 41 49 120 72 141 24 22 30 13 58 -78 11 -36 29 -74 40
-84 20 -18 20 -18 14 11 -5 25 29 220 40 231 7 8 74 -166 95 -247 11 -46 23
-85 25 -87 9 -9 85 -15 109 -9 22 5 25 12 31 78 3 39 9 74 12 77 2 3 19 -1 37
-8 18 -7 44 -15 58 -18 24 -4 28 -1 39 34 28 86 62 134 115 160 27 14 51 27
53 28 2 2 -15 39 -37 84 -23 44 -41 83 -41 86 0 4 27 -14 59 -39 33 -25 62
-46 65 -46 3 0 6 8 7 18 0 10 6 5 15 -15 19 -45 29 -48 67 -19 19 15 38 26 44
26 5 0 24 -42 42 -94 18 -52 39 -103 47 -113 12 -16 13 -15 14 14 0 38 21 123
30 123 4 0 47 -84 96 -187 l90 -188 32 95 c39 116 48 132 57 105 20 -60 35
-86 93 -164 35 -47 65 -88 68 -90 2 -2 3 63 3 145 0 82 3 165 8 184 l9 34 28
-58 c28 -57 129 -176 140 -165 4 4 -57 216 -118 407 -7 20 6 13 71 -35 96 -73
283 -185 283 -169 0 2 -11 28 -24 57 -19 45 -126 336 -126 345 0 2 17 -4 37
-13 46 -19 295 -84 301 -78 4 4 -67 355 -75 368 -10 17 16 4 62 -32 l50 -38
-4 -192 -3 -191 58 0 c33 0 76 -3 96 -6 l38 -7 -19 -26 c-28 -39 -71 -129 -92
-189 l-18 -53 21 7 c26 8 145 10 153 2 14 -13 35 -170 35 -258 0 -84 3 -99 18
-105 9 -4 44 -18 77 -30 57 -21 61 -25 92 -86 17 -35 41 -94 53 -131 26 -78
32 -80 104 -44 l47 24 36 -54 c20 -30 44 -77 53 -104 l17 -50 52 52 c28 29 62
74 76 101 27 55 78 99 148 129 l49 21 -5 47 c-7 59 -41 157 -63 181 -15 17
-14 20 31 46 91 54 91 54 98 139 5 66 10 81 35 108 15 17 43 50 60 72 l32 42
-30 208 c-34 238 -69 435 -104 577 -13 53 -22 97 -21 97 1 0 53 -59 115 -130
243 -280 505 -513 1160 -1030 339 -268 495 -397 850 -705 140 -122 451 -387
690 -590 1098 -930 1868 -1657 2321 -2190 433 -510 750 -1007 925 -1454 34
-86 55 -126 69 -131 11 -4 101 -13 200 -20 177 -12 508 -8 584 8 l35 8 -83 89
c-198 215 -455 532 -778 960 -433 574 -889 1094 -1399 1595 -638 627 -1159
1060 -2997 2490 -300 234 -545 428 -544 432 1 4 36 32 77 62 l75 54 12 -75
c12 -76 51 -203 63 -203 10 0 39 127 56 247 17 123 21 459 5 538 -5 27 -8 51
-6 53 2 2 17 -41 35 -95 18 -54 35 -101 39 -105 27 -30 -53 512 -99 670 -8 30
-7 33 8 27 48 -20 154 -56 158 -53 11 11 35 135 41 208 6 73 8 80 15 50 4 -19
11 -88 16 -153 5 -65 13 -122 19 -128 15 -15 144 -23 174 -11 22 9 28 19 34
58 13 89 17 91 58 19 21 -36 42 -65 48 -65 18 0 87 39 92 52 3 9 14 4 35 -15
24 -23 36 -28 59 -23 33 8 86 39 132 78 l32 28 -70 87 c-39 48 -71 91 -71 94
0 3 44 9 97 12 77 5 100 4 113 -8 19 -17 81 -40 132 -48 l38 -6 20 72 c12 40
28 92 36 116 19 61 18 80 -11 126 -13 22 -25 55 -25 73 0 27 4 32 23 32 24 0
88 -29 126 -57 l23 -17 -7 54 c-13 104 -69 309 -101 373 -20 37 -11 34 38 -13
23 -22 44 -38 46 -35 2 2 -13 32 -34 67 -201 332 -563 727 -823 899 -46 30
-81 61 -81 70 0 20 76 139 89 139 5 0 14 -14 20 -31 21 -60 163 -250 177 -236
17 16 -65 290 -129 432 -117 260 -276 451 -542 650 -92 69 -283 185 -304 185
-6 0 -11 3 -11 8 0 4 15 7 33 8 17 0 91 4 162 8 120 8 133 11 165 36 42 33
123 81 166 99 30 12 35 10 80 -24 41 -31 154 -95 168 -95 3 0 -5 28 -18 63
-21 54 -49 187 -40 187 2 0 44 -26 93 -59 84 -55 411 -241 424 -241 3 0 -32
77 -78 172 -47 95 -85 176 -85 181 0 4 19 -7 43 -26 73 -60 188 -138 302 -207
134 -81 234 -137 220 -123 -5 6 -66 61 -135 123 -69 62 -134 122 -145 133 -34
34 64 -26 315 -193 129 -86 263 -173 298 -193 85 -50 91 -50 467 9 61 9 112
19 114 21 15 12 -199 187 -354 289 -235 154 -368 216 -680 319 -174 57 -460
129 -625 158 -167 28 -474 30 -665 4 -589 -82 -1150 -236 -1664 -457 -80 -34
-162 -70 -184 -81 -70 -36 -48 -15 48 46 67 43 94 66 94 80 1 30 -32 97 -67
136 l-31 35 68 16 c38 9 132 45 209 80 l141 63 11 70 c6 39 14 78 16 87 3 10
48 47 100 83 l94 66 -70 101 c-50 72 -67 105 -60 112 7 7 55 10 123 9 l112 -2
-48 44 c-92 85 -210 135 -361 155 -54 8 -101 8 -134 2 -48 -9 -51 -8 -56 14
-8 30 7 97 29 130 9 14 15 28 12 30 -2 3 -31 14 -63 25 -57 20 -213 34 -259
23z m-2107 -1171 c-3 -17 -7 -18 -37 -11 l-34 9 29 18 c32 20 48 14 42 -16z
m2517 -792 c16 -31 16 -33 0 -27 -9 3 -50 6 -91 6 l-74 0 38 39 c21 22 47 55
57 75 l20 36 16 -48 c9 -26 24 -63 34 -81z m618 -56 l44 -85 -36 6 c-20 4 -39
9 -43 13 -5 5 -16 151 -11 151 1 0 22 -38 46 -85z m-2737 60 c-11 -8 -24 -15
-28 -15 -5 0 -35 -17 -66 -39 -50 -33 -73 -41 -182 -61 -164 -30 -155 -30
-155 4 0 23 6 31 25 36 77 21 77 21 88 -5 16 -34 32 -31 32 4 0 28 3 30 58 41
31 6 62 13 67 14 6 2 18 -3 27 -11 13 -12 21 -12 40 -2 13 6 25 15 28 19 5 8
59 28 75 29 6 0 1 -6 -9 -14z m3188 -243 c7 -21 7 -21 -38 -6 -26 9 -46 18
-46 21 0 3 12 39 27 81 l27 77 12 -76 c6 -42 15 -85 18 -97z m-3640 129 c14
-26 14 -30 0 -35 -37 -14 -54 -7 -54 23 0 20 6 31 18 34 9 3 18 5 19 6 1 0 9
-12 17 -28z m-93 -28 c7 -20 4 -23 -47 -33 -31 -7 -58 -9 -61 -6 -14 14 17 55
44 59 45 7 55 3 64 -20z m-191 -43 c0 -14 -7 -20 -24 -20 -13 0 -32 -3 -41 -6
-13 -5 -16 -2 -13 12 3 16 30 30 66 33 6 1 12 -8 12 -19z m-120 -24 c0 -8 -15
-16 -37 -19 -106 -17 -107 -17 -43 7 78 29 80 30 80 12z m3060 -52 c0 -19 -3
-33 -7 -31 -5 3 -28 10 -53 17 l-45 12 45 18 c61 24 60 25 60 -16z m-3430 -25
c0 -4 -11 -9 -25 -11 -29 -6 -29 -7 -13 26 10 24 12 24 24 8 7 -9 14 -20 14
-23z m4663 -49 c-3 -11 -9 -17 -14 -15 -10 7 -1 35 11 35 5 0 6 -9 3 -20z
m-1318 -248 c300 -157 550 -303 835 -487 138 -89 146 -98 30 -36 -52 29 -252
131 -445 228 -192 96 -393 204 -445 238 -52 35 -172 104 -266 155 -141 74
-171 94 -167 109 4 17 20 12 136 -44 73 -35 218 -108 322 -163z m1728 93 c14
-44 24 -81 23 -82 -1 -1 -24 11 -52 28 l-51 29 18 52 c10 29 19 62 19 73 l1
20 9 -20 c4 -11 19 -56 33 -100z m-209 60 c-6 -16 -24 -21 -24 -7 0 11 11 22
21 22 5 0 6 -7 3 -15z m380 -155 c9 -41 16 -76 16 -78 0 -1 -13 4 -30 13 -16
9 -30 21 -30 27 0 16 24 118 27 115 1 -1 9 -36 17 -77z m-2151 -339 c-6 -24
-7 -22 -49 64 -15 29 -15 29 20 -7 25 -26 33 -42 29 -57z m-1399 -109 c8 -16
11 -34 7 -41 -6 -9 -10 -5 -15 12 -3 14 -9 32 -12 41 -10 27 5 18 20 -12z
m1189 -139 c-8 -49 -23 -40 -23 14 0 41 2 45 14 33 9 -10 12 -27 9 -47z m434
-265 c0 -62 3 -147 6 -188 3 -41 4 -66 1 -55 -3 11 -21 83 -40 159 l-34 140
32 27 c18 16 33 28 34 29 0 0 1 -51 1 -112z m-353 -48 c38 -17 46 -26 46 -47
0 -47 -22 -153 -30 -148 -8 5 -27 61 -55 168 -7 26 -12 47 -10 47 1 0 23 -9
49 -20z m622 -107 c0 -98 5 -142 20 -187 l19 -59 35 102 c19 55 37 101 40 101
3 0 28 -40 57 -88 l52 -87 21 -160 c12 -88 25 -234 30 -325 6 -143 12 -178 38
-260 37 -118 91 -263 130 -355 16 -38 35 -97 42 -130 24 -122 29 -135 54 -135
12 0 26 -3 30 -7 4 -4 23 -6 41 -4 19 1 59 -5 88 -13 l54 -16 7 -102 c3 -57
13 -132 20 -168 8 -36 13 -66 12 -67 -6 -7 -236 220 -337 334 -241 269 -436
526 -716 944 l-185 276 18 52 c10 28 21 51 24 51 3 0 22 -34 44 -75 38 -75
182 -242 172 -200 -2 11 -7 49 -11 85 -8 78 -43 319 -50 341 -3 10 11 27 41
50 46 34 160 163 183 207 6 12 15 22 19 22 4 0 7 -57 8 -127z m1451 43 c39
-41 82 -97 96 -128 25 -52 29 -56 83 -73 37 -12 72 -16 103 -12 l47 6 38 -114
37 -114 42 15 c53 19 127 62 127 74 0 6 4 10 9 10 5 0 3 -21 -5 -47 -18 -59
-18 -189 0 -273 8 -36 13 -66 12 -67 -1 -1 -16 16 -33 38 -83 108 -520 559
-661 683 -24 20 -42 39 -40 40 7 7 63 35 69 36 4 0 38 -33 76 -74z m-4681
-697 c63 -110 69 -136 38 -146 -7 -2 -81 169 -113 261 -9 27 14 -9 75 -115z
m134 -29 c0 -4 -7 -13 -15 -20 -13 -11 -15 -8 -15 13 0 19 4 25 15 21 8 -4 15
-10 15 -14z m4385 -55 c8 -69 1 -98 -11 -49 -4 16 -15 48 -25 72 l-18 42 24 0
c22 0 24 -5 30 -65z m-4629 -222 c19 -32 19 -32 -6 -78 -30 -56 -40 -64 -40
-32 0 21 -49 253 -66 312 -3 11 16 -23 43 -75 28 -52 58 -109 69 -127z m-110
-25 l64 -127 -20 -33 -20 -33 -7 25 c-6 22 -86 258 -107 315 l-8 20 17 -20 c9
-11 45 -77 81 -147z m62 -248 c-9 -14 -14 -16 -20 -7 -13 20 -9 27 12 27 18 0
19 -3 8 -20z m2108 -272 l46 -72 -11 -52 c-7 -28 -18 -60 -25 -70 -12 -16 -15
-10 -29 52 -9 38 -27 102 -41 142 -24 69 -24 72 -6 72 13 0 35 -24 66 -72z
m2393 -585 c-1 -134 1 -134 -104 -52 -49 39 -91 73 -92 77 -3 7 150 59 180 61
15 1 17 -9 16 -86z"/>
</g>
</svg>
