<?xml version="1.0" encoding="iso-8859-1"?>
<!-- Generator: Adobe Illustrator 19.0.0, SVG Export Plug-In . SVG Version: 6.00 Build 0)  -->
<svg version="1.1" id="Layer_1" xmlns="http://www.w3.org/2000/svg" xmlns:xlink="http://www.w3.org/1999/xlink" x="0px" y="0px"
	 viewBox="0 0 297 297" style="enable-background:new 0 0 297 297;" xml:space="preserve">
<g>
	<g>
		<path style="fill:#5437A3;" d="M262.731,96.88c-5.449,0-9.865-4.417-9.865-9.865V61.312c0-6.346-5.163-11.509-11.509-11.509
			h-77.193c-6.346,0-11.509,5.163-11.509,11.509v25.702c0,5.449-4.417,9.865-9.865,9.865s-9.865-4.417-9.865-9.865V61.312
			c0-17.226,14.014-31.24,31.24-31.24h77.193c17.226,0,31.24,14.014,31.24,31.24v25.702C272.596,92.463,268.18,96.88,262.731,96.88z
			"/>
	</g>
	<g>
		<path style="fill:#FA961E;" d="M22.846,135.562c-1.461,0-2.924-0.558-4.038-1.673L1.673,116.754c-2.231-2.23-2.231-5.846,0-8.076
			c2.229-2.231,5.847-2.231,8.076,0l17.135,17.135c2.231,2.23,2.231,5.846,0,8.076C25.77,135.005,24.308,135.562,22.846,135.562z"/>
	</g>
	<g>
		<path style="fill:#FA961E;" d="M5.712,221.235c-1.461,0-2.924-0.558-4.038-1.673c-2.231-2.23-2.231-5.846,0-8.076l17.135-17.135
			c2.229-2.231,5.847-2.231,8.076,0c2.231,2.23,2.231,5.846,0,8.076L9.75,219.562C8.635,220.678,7.173,221.235,5.712,221.235z"/>
	</g>
	<g>
		<path style="fill:#FA961E;" d="M22.846,169.832H5.712c-3.154,0-5.712-2.558-5.712-5.712s2.558-5.712,5.712-5.712h17.135
			c3.154,0,5.712,2.558,5.712,5.712C28.558,167.274,26,169.832,22.846,169.832z"/>
	</g>
	<g>
		<path style="fill:#313052;" d="M101.942,249.793h167.366c15.294,0,27.692-12.398,27.692-27.692V106.139
			c0-15.294-12.398-27.692-27.692-27.692H101.942c-15.294,0-27.692,12.398-27.692,27.692v115.962
			C74.25,237.395,86.648,249.793,101.942,249.793z"/>
	</g>
	<g>
		<rect x="192.289" y="78.447" style="fill:#44447D;" width="36.346" height="171.346"/>
	</g>
	<g>
		<path style="fill:#55557C;" d="M44.117,266.928h60.265c6.07,0,10.991-4.921,10.991-10.991V72.303
			c0-6.07-4.921-10.991-10.991-10.991H44.117c-6.07,0-10.991,4.921-10.991,10.991v183.634
			C33.127,262.007,38.048,266.928,44.117,266.928z"/>
	</g>
	<g>
		<path style="fill:#242447;" d="M74.25,163.082v59.019c0,15.294,12.398,27.692,27.692,27.692h167.366
			c15.294,0,27.692-12.398,27.692-27.692v-59.019H74.25z"/>
	</g>
	<g>
		<rect x="192.289" y="163.082" style="fill:#38386D;" width="36.346" height="86.712"/>
	</g>
	<g>
		<path style="fill:#45456D;" d="M33.127,163.082v92.856c0,6.07,4.921,10.991,10.991,10.991h60.265
			c6.07,0,10.991-4.921,10.991-10.991v-92.856L33.127,163.082L33.127,163.082z"/>
	</g>
</g>
<g>
</g>
<g>
</g>
<g>
</g>
<g>
</g>
<g>
</g>
<g>
</g>
<g>
</g>
<g>
</g>
<g>
</g>
<g>
</g>
<g>
</g>
<g>
</g>
<g>
</g>
<g>
</g>
<g>
</g>
</svg>
