<svg id="wave" style="transform:rotate(0deg); transition: 0.3s" viewBox="0 0 1440 320" version="1.1" xmlns="http://www.w3.org/2000/svg"><defs><linearGradient id="sw-gradient-0" x1="0" x2="0" y1="1" y2="0"><stop stop-color="rgba(109, 216, 219, 1)" offset="0%"></stop><stop stop-color="rgba(143, 255, 253, 1)" offset="100%"></stop></linearGradient></defs><path style="transform:translate(0, 0px); opacity:1" fill="url(#sw-gradient-0)" d="M0,192L26.7,208C53.3,224,107,256,160,261.3C213.3,267,267,245,320,245.3C373.3,245,427,267,480,250.7C533.3,235,587,181,640,176C693.3,171,747,213,800,240C853.3,267,907,277,960,240C1013.3,203,1067,117,1120,80C1173.3,43,1227,53,1280,74.7C1333.3,96,1387,128,1440,165.3C1493.3,203,1547,245,1600,266.7C1653.3,288,1707,288,1760,240C1813.3,192,1867,96,1920,96C1973.3,96,2027,192,2080,192C2133.3,192,2187,96,2240,69.3C2293.3,43,2347,85,2400,96C2453.3,107,2507,85,2560,101.3C2613.3,117,2667,171,2720,170.7C2773.3,171,2827,117,2880,96C2933.3,75,2987,85,3040,117.3C3093.3,149,3147,203,3200,192C3253.3,181,3307,107,3360,69.3C3413.3,32,3467,32,3520,37.3C3573.3,43,3627,53,3680,48C3733.3,43,3787,21,3813,10.7L3840,0L3840,320L3813.3,320C3786.7,320,3733,320,3680,320C3626.7,320,3573,320,3520,320C3466.7,320,3413,320,3360,320C3306.7,320,3253,320,3200,320C3146.7,320,3093,320,3040,320C2986.7,320,2933,320,2880,320C2826.7,320,2773,320,2720,320C2666.7,320,2613,320,2560,320C2506.7,320,2453,320,2400,320C2346.7,320,2293,320,2240,320C2186.7,320,2133,320,2080,320C2026.7,320,1973,320,1920,320C1866.7,320,1813,320,1760,320C1706.7,320,1653,320,1600,320C1546.7,320,1493,320,1440,320C1386.7,320,1333,320,1280,320C1226.7,320,1173,320,1120,320C1066.7,320,1013,320,960,320C906.7,320,853,320,800,320C746.7,320,693,320,640,320C586.7,320,533,320,480,320C426.7,320,373,320,320,320C266.7,320,213,320,160,320C106.7,320,53,320,27,320L0,320Z"></path><defs><linearGradient id="sw-gradient-1" x1="0" x2="0" y1="1" y2="0"><stop stop-color="rgba(109, 216, 219, 1)" offset="0%"></stop><stop stop-color="rgba(143, 255, 253, 1)" offset="100%"></stop></linearGradient></defs><path style="transform:translate(0, 50px); opacity:0.9" fill="url(#sw-gradient-1)" d="M0,288L26.7,266.7C53.3,245,107,203,160,170.7C213.3,139,267,117,320,133.3C373.3,149,427,203,480,192C533.3,181,587,107,640,90.7C693.3,75,747,117,800,149.3C853.3,181,907,203,960,202.7C1013.3,203,1067,181,1120,154.7C1173.3,128,1227,96,1280,106.7C1333.3,117,1387,171,1440,197.3C1493.3,224,1547,224,1600,218.7C1653.3,213,1707,203,1760,165.3C1813.3,128,1867,64,1920,69.3C1973.3,75,2027,149,2080,149.3C2133.3,149,2187,75,2240,37.3C2293.3,0,2347,0,2400,26.7C2453.3,53,2507,107,2560,144C2613.3,181,2667,203,2720,202.7C2773.3,203,2827,181,2880,181.3C2933.3,181,2987,203,3040,213.3C3093.3,224,3147,224,3200,213.3C3253.3,203,3307,181,3360,186.7C3413.3,192,3467,224,3520,202.7C3573.3,181,3627,107,3680,80C3733.3,53,3787,75,3813,85.3L3840,96L3840,320L3813.3,320C3786.7,320,3733,320,3680,320C3626.7,320,3573,320,3520,320C3466.7,320,3413,320,3360,320C3306.7,320,3253,320,3200,320C3146.7,320,3093,320,3040,320C2986.7,320,2933,320,2880,320C2826.7,320,2773,320,2720,320C2666.7,320,2613,320,2560,320C2506.7,320,2453,320,2400,320C2346.7,320,2293,320,2240,320C2186.7,320,2133,320,2080,320C2026.7,320,1973,320,1920,320C1866.7,320,1813,320,1760,320C1706.7,320,1653,320,1600,320C1546.7,320,1493,320,1440,320C1386.7,320,1333,320,1280,320C1226.7,320,1173,320,1120,320C1066.7,320,1013,320,960,320C906.7,320,853,320,800,320C746.7,320,693,320,640,320C586.7,320,533,320,480,320C426.7,320,373,320,320,320C266.7,320,213,320,160,320C106.7,320,53,320,27,320L0,320Z"></path><defs><linearGradient id="sw-gradient-2" x1="0" x2="0" y1="1" y2="0"><stop stop-color="rgba(109, 216, 219, 1)" offset="0%"></stop><stop stop-color="rgba(143, 255, 253, 1)" offset="100%"></stop></linearGradient></defs><path style="transform:translate(0, 100px); opacity:0.8" fill="url(#sw-gradient-2)" d="M0,160L26.7,149.3C53.3,139,107,117,160,133.3C213.3,149,267,203,320,186.7C373.3,171,427,85,480,80C533.3,75,587,149,640,181.3C693.3,213,747,203,800,202.7C853.3,203,907,213,960,224C1013.3,235,1067,245,1120,256C1173.3,267,1227,277,1280,240C1333.3,203,1387,117,1440,106.7C1493.3,96,1547,160,1600,181.3C1653.3,203,1707,181,1760,192C1813.3,203,1867,245,1920,218.7C1973.3,192,2027,96,2080,90.7C2133.3,85,2187,171,2240,208C2293.3,245,2347,235,2400,192C2453.3,149,2507,75,2560,48C2613.3,21,2667,43,2720,69.3C2773.3,96,2827,128,2880,154.7C2933.3,181,2987,203,3040,192C3093.3,181,3147,139,3200,128C3253.3,117,3307,139,3360,122.7C3413.3,107,3467,53,3520,53.3C3573.3,53,3627,107,3680,112C3733.3,117,3787,75,3813,53.3L3840,32L3840,320L3813.3,320C3786.7,320,3733,320,3680,320C3626.7,320,3573,320,3520,320C3466.7,320,3413,320,3360,320C3306.7,320,3253,320,3200,320C3146.7,320,3093,320,3040,320C2986.7,320,2933,320,2880,320C2826.7,320,2773,320,2720,320C2666.7,320,2613,320,2560,320C2506.7,320,2453,320,2400,320C2346.7,320,2293,320,2240,320C2186.7,320,2133,320,2080,320C2026.7,320,1973,320,1920,320C1866.7,320,1813,320,1760,320C1706.7,320,1653,320,1600,320C1546.7,320,1493,320,1440,320C1386.7,320,1333,320,1280,320C1226.7,320,1173,320,1120,320C1066.7,320,1013,320,960,320C906.7,320,853,320,800,320C746.7,320,693,320,640,320C586.7,320,533,320,480,320C426.7,320,373,320,320,320C266.7,320,213,320,160,320C106.7,320,53,320,27,320L0,320Z"></path><defs><linearGradient id="sw-gradient-3" x1="0" x2="0" y1="1" y2="0"><stop stop-color="rgba(109, 216, 219, 1)" offset="0%"></stop><stop stop-color="rgba(143, 255, 253, 1)" offset="100%"></stop></linearGradient></defs><path style="transform:translate(0, 150px); opacity:0.7" fill="url(#sw-gradient-3)" d="M0,128L26.7,138.7C53.3,149,107,171,160,170.7C213.3,171,267,149,320,138.7C373.3,128,427,128,480,144C533.3,160,587,192,640,181.3C693.3,171,747,117,800,117.3C853.3,117,907,171,960,165.3C1013.3,160,1067,96,1120,90.7C1173.3,85,1227,139,1280,176C1333.3,213,1387,235,1440,245.3C1493.3,256,1547,256,1600,224C1653.3,192,1707,128,1760,117.3C1813.3,107,1867,149,1920,138.7C1973.3,128,2027,64,2080,42.7C2133.3,21,2187,43,2240,64C2293.3,85,2347,107,2400,144C2453.3,181,2507,235,2560,224C2613.3,213,2667,139,2720,117.3C2773.3,96,2827,128,2880,160C2933.3,192,2987,224,3040,202.7C3093.3,181,3147,107,3200,101.3C3253.3,96,3307,160,3360,181.3C3413.3,203,3467,181,3520,149.3C3573.3,117,3627,75,3680,90.7C3733.3,107,3787,181,3813,218.7L3840,256L3840,320L3813.3,320C3786.7,320,3733,320,3680,320C3626.7,320,3573,320,3520,320C3466.7,320,3413,320,3360,320C3306.7,320,3253,320,3200,320C3146.7,320,3093,320,3040,320C2986.7,320,2933,320,2880,320C2826.7,320,2773,320,2720,320C2666.7,320,2613,320,2560,320C2506.7,320,2453,320,2400,320C2346.7,320,2293,320,2240,320C2186.7,320,2133,320,2080,320C2026.7,320,1973,320,1920,320C1866.7,320,1813,320,1760,320C1706.7,320,1653,320,1600,320C1546.7,320,1493,320,1440,320C1386.7,320,1333,320,1280,320C1226.7,320,1173,320,1120,320C1066.7,320,1013,320,960,320C906.7,320,853,320,800,320C746.7,320,693,320,640,320C586.7,320,533,320,480,320C426.7,320,373,320,320,320C266.7,320,213,320,160,320C106.7,320,53,320,27,320L0,320Z"></path></svg>