<svg width="400" height="240" viewBox="0 0 400 240" fill="none" xmlns="http://www.w3.org/2000/svg">
<path d="M368.572 70C360.715 70 345 77.857 345 85.715C345 80.218 337.31 74.726 330 71.919C326.86 70.713 323.789 70 321.428 70C311.154 70 300.88 70 294.998 70C292.236 70 289.968 72.2487 290.347 74.9839C292.681 91.819 306.594 107.788 326.264 114.189C328.439 114.896 330 116.871 330 119.158V125C330 144.331 314.33 160 295 160C275.67 160 260 144.331 260 125V51C260 22.834 237.166 0 209 0H51C22.833 0 0 22.834 0 51V149C0 149.524 0.0087935 150.046 0.0258131 150.566C0.108761 153.101 2.27465 155 4.8107 155H95C107.085 155 117.194 146.381 119.504 134.968C120.052 132.261 122.239 130 125 130H135C137.761 130 140.029 132.247 139.725 134.992C137.234 157.465 118.126 175 95 175H15.912C12.0355 175 9.7188 179.186 12.2384 182.132C21.5905 193.067 35.4831 200 51 200H135C137.761 200 139.967 202.25 140.308 204.99C142.561 223.092 156.908 237.439 175.01 239.692C177.75 240.033 180 237.761 180 235V205C180 202.239 182.239 200 185 200H309C337.167 200 360 177.167 360 149V119.158C360 116.871 361.561 114.896 363.736 114.189C383.406 107.788 397.319 91.819 399.653 74.9839C400.032 72.2487 397.764 70 395.002 70C389.12 70 378.846 70 368.572 70ZM130 110C124.477 110 120 105.523 120 100C120 94.477 124.477 90 130 90C135.523 90 140 94.477 140 100C140 105.523 135.523 110 130 110Z" fill="white"/>
</svg>
